<svg version="1.1" id="Layer_1" xmlns="http://www.w3.org/2000/svg" xmlns:xlink="http://www.w3.org/1999/xlink" x="0px" y="0px"
	 width="100%" viewBox="0 0 1024 1024" enable-background="new 0 0 1024 1024" xml:space="preserve">
<path fill="#000000" opacity="1.000000" stroke="none" 
	d="
M564.427490,469.423157 
	C563.989075,471.638611 562.425720,472.292969 561.105835,473.322083 
	C558.753296,475.156403 556.909912,477.391144 555.128540,479.908356 
	C553.368958,482.394806 551.250854,487.129150 546.276306,486.726440 
	C543.973694,486.540039 542.420837,488.641876 541.607727,490.077301 
	C537.418518,497.472900 529.643616,500.462036 523.302856,504.992584 
	C518.530640,508.402435 512.786865,510.467163 509.011383,515.328613 
	C508.314514,516.225891 507.233521,516.013184 506.311584,516.299500 
	C499.829590,518.312256 494.174103,521.100647 488.851013,525.995117 
	C482.887115,531.478821 477.449799,537.763611 470.535858,542.245605 
	C469.860870,542.683167 468.867126,543.154663 468.709351,543.783142 
	C467.121429,550.109558 460.925293,552.751038 457.713989,557.719910 
	C453.291077,564.563477 449.739716,571.934875 449.373230,580.153381 
	C449.193573,584.182312 451.493835,588.066162 451.251709,592.472961 
	C451.072998,595.725281 452.199829,598.948181 449.659424,601.805237 
	C449.203461,602.317932 449.075989,603.489441 449.306213,604.189209 
	C451.668213,611.369507 451.600281,618.956299 451.886322,626.263062 
	C452.259399,635.792480 452.482086,645.420776 452.722351,654.953064 
	C452.983429,665.311462 452.367981,675.776062 453.944427,686.209595 
	C454.659790,690.943909 455.332581,696.040955 454.721527,701.255981 
	C454.250824,705.273315 455.738831,709.863831 455.721588,714.291687 
	C455.695679,720.934326 457.091339,727.451233 457.018677,734.202209 
	C456.967865,738.917603 458.997925,744.105042 458.477417,749.135742 
	C457.897705,754.738647 460.453308,760.180664 458.740173,765.823914 
	C457.804993,768.904602 458.906311,771.990723 459.639862,775.148132 
	C461.105042,781.454590 460.844025,788.160156 459.829529,794.383972 
	C458.854065,800.368286 460.841583,805.979370 459.998199,811.848633 
	C459.187347,817.491882 459.684601,823.312012 459.318146,829.036011 
	C459.184265,831.127258 458.580322,833.470337 455.399475,832.968750 
	C452.738220,832.549011 451.814056,830.940918 450.931335,828.455750 
	C448.081207,820.431702 448.560699,811.952759 447.253693,803.736877 
	C446.204834,797.143677 446.804230,790.218445 446.802124,783.454590 
	C446.799072,773.665649 445.143799,763.897095 445.845612,754.189880 
	C446.423798,746.192505 444.719635,738.399963 445.234802,730.404175 
	C445.590088,724.889404 443.676453,719.209473 443.441864,713.471313 
	C443.213043,707.874512 443.481659,702.260864 443.064484,696.707642 
	C442.588776,690.374695 443.795563,683.675903 441.025696,678.836853 
	C437.668579,681.513672 434.203156,684.044556 431.040741,686.909851 
	C429.730804,688.096741 428.785980,690.110168 429.520813,691.958313 
	C433.841003,702.824219 432.316467,714.337952 432.944031,725.520264 
	C434.211731,748.109070 434.517639,770.758179 434.887390,793.387878 
	C435.033875,802.352234 435.591888,811.366211 434.223572,820.311523 
	C433.951752,822.088684 434.082031,824.004089 432.009277,825.400208 
	C430.333038,823.203735 429.953369,820.670898 429.802917,818.099365 
	C428.441406,794.835938 428.014893,771.546204 427.490814,748.251892 
	C427.132080,732.306885 426.496216,716.365295 426.318054,700.411316 
	C426.287201,697.651001 427.730743,694.854309 425.853210,691.320129 
	C421.839905,694.618164 417.936798,697.737671 414.152130,700.994751 
	C413.151245,701.856262 412.460541,703.180725 410.968018,703.149292 
	C406.177917,703.048584 406.283264,705.469177 407.008698,709.324158 
	C409.381683,721.934326 410.101410,734.722900 410.334045,747.549377 
	C410.741028,769.987061 411.454132,792.420776 411.642334,814.859436 
	C411.679840,819.336731 412.726746,824.250549 410.026337,828.979248 
	C407.016174,826.741699 407.586060,823.794739 407.303528,821.373901 
	C405.488251,805.821472 405.475006,790.162537 404.797119,774.541870 
	C404.084564,758.122864 403.329041,741.705566 402.530518,725.290466 
	C402.268158,719.897156 404.056915,714.330994 401.009033,708.489075 
	C396.020386,711.432068 392.809784,707.529846 388.637787,705.636230 
	C377.969482,700.793823 371.037537,692.061157 363.470032,683.874634 
	C362.475220,682.798462 361.552032,681.555298 359.471252,681.479797 
	C359.471252,688.414856 358.572601,695.463013 359.689423,702.175842 
	C361.227356,711.420166 360.231934,720.751038 361.788574,729.924866 
	C362.064178,731.549194 362.497772,733.268066 362.230255,734.836060 
	C361.775604,737.501282 365.039093,740.737915 360.995605,742.989380 
	C360.619659,743.198608 360.983337,745.744202 361.683716,746.713745 
	C366.002655,752.692444 362.894562,759.433105 363.800446,765.750977 
	C364.852051,773.085266 364.819427,780.626587 364.753998,787.942444 
	C364.656921,798.800537 367.241425,809.360046 366.895416,820.201416 
	C366.762543,824.365845 363.923431,827.010742 362.350830,829.764954 
	C360.669708,832.709167 360.732513,834.597778 361.627594,837.458496 
	C359.337341,838.258972 357.207764,839.003296 354.855957,839.825256 
	C352.009094,836.520020 351.250000,832.837463 351.374878,828.443604 
	C351.565063,821.753174 350.780670,815.040710 350.593048,808.332520 
	C350.271057,796.820374 349.149994,785.222107 350.148071,773.816040 
	C350.944916,764.709290 348.853485,755.989563 349.112640,747.011597 
	C349.527588,732.635986 349.056091,718.225891 348.652435,703.838928 
	C348.407684,695.115173 347.634918,686.334412 347.728149,677.678833 
	C347.802795,670.748840 346.286865,664.011536 346.764465,657.084229 
	C347.531921,645.952332 344.224243,635.104675 343.684174,624.041260 
	C342.987732,609.775513 340.168518,595.885071 336.647491,582.094910 
	C335.968719,579.436584 334.953583,577.385254 332.725891,575.520935 
	C327.835632,571.428345 325.297363,565.352844 320.527069,560.835449 
	C317.365234,557.841309 312.545349,557.623535 310.457245,553.565979 
	C310.318024,553.295410 309.269867,553.442017 308.650360,553.483337 
	C308.010406,553.525940 306.938263,553.951355 306.806366,553.740234 
	C303.959015,549.180786 298.910980,548.335571 294.493988,546.811951 
	C289.071838,544.941589 285.145203,539.916504 278.974640,539.797485 
	C276.543945,539.750610 275.636780,536.964844 273.631775,536.411255 
	C269.379303,535.237122 265.039368,534.311829 260.684143,533.595520 
	C255.504486,532.743591 250.536621,530.910828 245.658173,529.319824 
	C242.039948,528.139832 238.258087,527.600403 234.759033,527.130859 
	C231.854630,526.741089 230.234222,526.164734 228.943176,523.848022 
	C228.622330,523.272278 228.237930,522.210449 227.928787,522.227051 
	C222.475845,522.520813 218.316833,518.298889 213.087463,518.045471 
	C211.872818,517.986633 210.572433,517.995239 209.783432,517.268005 
	C205.754593,513.555359 200.321396,512.286194 195.730988,509.593964 
	C191.371902,507.037384 187.750412,504.522491 184.536453,500.740784 
	C184.086670,500.211487 180.755936,498.432709 178.359192,498.831177 
	C177.234695,499.018127 176.309875,498.550903 175.740677,497.718567 
	C169.977478,489.290985 162.724640,482.492462 158.952438,471.943787 
	C154.015717,458.138641 155.604248,445.431702 157.043152,431.965820 
	C157.910477,423.849060 159.410873,415.829865 160.096603,407.675598 
	C160.827591,398.983063 163.271713,390.535980 167.202133,382.613190 
	C167.925476,381.155090 168.399948,379.489258 168.602249,377.870911 
	C169.781265,368.439178 174.608871,360.286285 177.961166,351.657867 
	C181.750107,341.905609 186.658508,332.607513 190.349533,322.760773 
	C191.804825,318.878448 194.184113,314.938538 196.558716,311.642273 
	C200.950287,305.546112 202.828766,298.335114 206.875854,292.066406 
	C210.090225,287.087494 213.516190,281.875854 216.008347,276.245270 
	C217.834396,272.119598 220.835709,268.465942 223.593750,264.813751 
	C226.700653,260.699615 230.775101,257.258301 231.962265,251.889038 
	C232.088638,251.317535 232.711243,250.802994 233.200867,250.372665 
	C238.550095,245.671249 241.882507,239.256546 246.682816,234.192749 
	C252.487320,228.069641 258.015839,221.703720 262.913971,214.939056 
	C266.236572,210.350372 270.464844,206.482040 274.649536,203.625275 
	C282.138611,198.512726 288.321686,191.889847 295.642914,186.592422 
	C301.310028,182.491837 307.903137,179.473495 313.070374,174.354919 
	C316.533905,170.924011 321.214630,168.038544 325.275818,165.710526 
	C329.538361,163.267059 333.368042,160.307251 337.480835,158.043320 
	C340.298859,156.492096 344.796783,154.496506 348.867950,155.204895 
	C352.620514,155.857849 356.277924,154.149521 359.105164,153.127426 
	C362.872101,151.765625 366.199188,151.534851 369.916840,151.590942 
	C378.136658,151.714951 385.820709,154.048508 393.344269,157.043274 
	C403.354095,161.027695 413.506287,164.675949 421.651062,172.278748 
	C423.672699,174.165863 426.948334,174.459366 429.574463,175.955658 
	C432.663330,177.715576 435.205109,179.575012 437.459229,182.180710 
	C438.520569,183.407639 439.697632,184.613251 441.718567,184.210663 
	C443.085480,183.938385 444.367279,184.546600 445.245270,185.674225 
	C450.186432,192.020294 457.210541,195.969925 463.362976,200.831161 
	C468.225189,204.672974 471.367249,210.299026 476.970154,213.158813 
	C479.666809,214.535217 481.672607,216.244446 483.000214,219.150726 
	C485.180450,223.923523 490.158539,226.291306 493.668610,229.948822 
	C499.550812,236.078079 503.933258,243.285553 509.576965,249.462402 
	C514.094666,254.406921 519.155518,259.360352 521.943787,265.052490 
	C526.225708,273.793762 533.109009,280.594177 537.399597,289.214874 
	C542.590027,299.643402 549.024780,309.468262 553.956238,320.005890 
	C559.554199,331.967865 565.832153,343.614349 570.346619,356.121033 
	C574.388428,367.318054 578.931519,378.335602 582.055481,389.841919 
	C585.847412,403.808777 589.986328,417.957397 584.939270,432.331390 
	C581.768494,441.361603 579.531128,450.828064 573.121643,458.685425 
	C570.295471,462.149933 568.372009,466.385559 564.427490,469.423157 
M247.079193,305.378784 
	C244.896454,301.392853 247.699478,297.278198 249.598434,295.746674 
	C256.789795,289.946838 263.660187,283.021515 272.590942,280.232483 
	C279.315460,278.132477 284.472321,276.391510 283.025299,268.004272 
	C282.899963,267.277954 283.500305,266.432648 283.741516,265.635956 
	C286.561523,256.321564 288.440796,246.860397 288.468353,237.072784 
	C288.472931,235.446930 288.916809,233.748657 289.498657,232.213028 
	C290.815033,228.738937 293.924927,227.196976 297.175415,226.441071 
	C300.417267,225.687195 301.052673,229.030319 302.439270,230.906693 
	C304.044678,233.079208 304.464722,235.775330 305.111267,238.371277 
	C307.929565,249.686798 310.214783,261.063507 314.164429,272.178619 
	C319.357269,286.792419 326.680817,299.621765 337.930847,310.122772 
	C349.307068,320.741577 363.124390,325.895050 378.534332,326.989410 
	C379.339233,327.046570 380.194580,326.800751 380.984985,326.560059 
	C382.143860,326.207092 383.198975,325.554688 383.312561,324.239014 
	C383.434723,322.823822 382.307526,322.115875 381.188507,321.806641 
	C373.647705,319.722626 368.475189,314.399414 363.659424,308.764862 
	C355.448853,299.158356 348.538940,288.685028 343.741455,276.919128 
	C342.278564,273.331329 341.182831,269.620483 342.202209,265.761688 
	C342.881805,263.189117 344.199860,261.369415 347.086914,264.015167 
	C350.381866,267.034698 352.037262,271.017883 353.966675,274.876953 
	C360.160950,287.266449 366.539642,299.333313 379.276276,306.797516 
	C382.313965,308.577728 385.931702,308.290100 388.388885,310.654388 
	C393.737061,315.800293 401.202881,315.816925 407.580933,318.232849 
	C413.589508,320.508789 420.780640,319.519653 427.391174,320.413483 
	C430.420654,320.823090 431.621368,319.306915 432.917023,317.267365 
	C434.251129,315.167236 433.288635,313.702301 432.008148,311.916840 
	C427.314880,305.372589 423.886444,298.288177 422.434143,290.207733 
	C421.745392,286.375549 420.987823,281.962250 419.202576,278.952240 
	C415.152344,272.123322 414.450989,264.437439 412.018188,257.269684 
	C410.318268,252.261246 409.429810,246.440674 407.803436,241.622238 
	C405.170227,233.821152 403.996857,225.963211 402.087402,217.929977 
	C405.193298,217.236679 407.109741,218.067657 407.512054,220.970245 
	C407.775299,222.869904 409.049225,224.348434 409.415009,225.998856 
	C410.310883,230.040817 414.887482,231.784286 415.617126,234.985992 
	C417.090393,241.450821 421.162842,246.376343 423.681824,252.151459 
	C425.257477,255.763916 426.988525,259.201813 429.669922,262.349457 
	C434.419189,259.222870 439.146393,256.734222 444.524750,256.125793 
	C456.924164,254.723007 468.037598,259.285858 479.037292,264.040527 
	C481.453003,265.084747 483.345581,267.107269 485.059296,269.202026 
	C487.491913,272.175476 487.890076,275.312927 485.475647,278.292999 
	C483.097870,281.227875 479.629486,282.091064 476.536255,279.952515 
	C473.152924,277.613373 469.356964,276.646759 465.668488,275.265656 
	C457.962006,272.380005 449.949951,270.987396 441.745056,271.246704 
	C437.259979,271.388489 436.587097,272.777771 439.234680,276.329346 
	C443.771179,282.414703 449.170502,287.730225 454.915039,292.702271 
	C459.908722,297.024445 466.277618,300.354828 472.067780,300.710266 
	C479.719543,301.180023 486.881165,302.646545 494.211639,304.374298 
	C508.378876,307.713440 517.883179,317.467316 527.436462,327.357147 
	C529.230896,329.214783 528.862427,333.458618 532.946411,332.821777 
	C536.829346,332.216278 535.288635,328.326050 535.934143,326.263245 
	C536.955322,322.999786 540.983093,318.971497 538.419739,316.357239 
	C533.346069,311.182861 534.769592,303.186188 528.826599,298.369141 
	C524.707642,295.030579 524.466614,288.216858 519.675903,284.757690 
	C519.208801,284.420380 518.893555,283.611938 518.846802,282.996429 
	C518.586792,279.573700 516.203674,277.449585 514.146362,275.142944 
	C509.683502,270.139038 505.762573,264.630493 501.626740,259.424072 
	C498.145325,255.041534 494.523407,250.540741 491.336578,245.883652 
	C488.630066,241.928436 483.740173,240.229431 481.866913,236.152786 
	C478.899139,229.694366 473.383636,225.673508 468.469055,221.373810 
	C460.609985,214.497986 452.256897,208.091614 444.255859,201.377518 
	C439.442810,197.338608 433.156036,195.995956 428.965973,190.829453 
	C425.641846,186.730637 419.832550,183.692032 415.283051,182.523254 
	C409.489288,181.034805 405.525513,177.300995 400.646881,174.952728 
	C388.790192,169.245667 377.616913,161.941269 363.495880,165.786255 
	C363.194702,165.868256 362.839600,165.747330 362.509247,165.727692 
	C355.013794,165.281860 348.160583,168.096649 341.930420,171.401306 
	C333.825500,175.700394 326.581482,181.596848 318.812683,186.564636 
	C314.049469,189.610504 309.673553,193.179016 304.723785,196.020004 
	C300.413330,198.494019 297.359314,202.993607 292.543976,204.986404 
	C290.369049,205.886490 289.141541,207.600510 288.327301,209.672607 
	C287.843353,210.904053 287.765900,212.573898 286.475891,213.088165 
	C280.455383,215.488342 277.922302,221.864441 272.602234,225.034927 
	C271.010620,225.983444 270.211945,227.801178 268.979523,228.999756 
	C266.537567,231.374649 266.151337,235.802322 263.713593,236.811142 
	C261.122284,237.883499 259.763306,239.420456 258.484039,241.326035 
	C256.428284,244.388260 255.613647,248.583832 250.713409,248.694351 
	C249.866257,248.713470 249.496658,249.734497 249.429443,250.623184 
	C248.913971,257.436523 243.267792,261.446198 239.833206,266.370667 
	C236.160553,271.636475 231.947708,276.845428 228.398331,282.191589 
	C224.164093,288.569305 219.815826,294.981659 216.047714,301.715057 
	C214.950745,303.675262 214.562256,305.808899 213.134506,307.804291 
	C208.150558,314.769714 204.549393,322.465546 203.012436,331.135834 
	C201.596588,339.122986 202.753067,347.061920 202.749435,354.983459 
	C202.746964,360.396393 203.274521,366.352112 206.533234,371.226532 
	C210.289536,376.845245 212.925751,383.481140 219.708603,387.222992 
	C220.473907,384.270203 221.901428,382.382477 222.425507,379.787170 
	C224.209717,370.951447 219.974777,362.570129 221.220383,353.745697 
	C222.072266,347.710571 221.509445,341.455048 223.045563,335.453979 
	C224.449677,329.968658 226.035767,329.066498 231.016312,330.658295 
	C230.725784,337.234528 230.383469,343.855469 230.167343,350.480560 
	C230.090714,352.829132 230.159897,355.655121 232.844452,356.344971 
	C235.477310,357.021545 237.805756,355.083282 239.025131,352.969116 
	C243.056183,345.980103 249.033432,340.639740 254.074463,334.516327 
	C261.169922,325.897339 266.356781,316.120148 271.307465,306.225555 
	C272.480621,303.880798 273.374878,300.913635 270.802795,297.714691 
	C268.165802,301.752716 263.259369,302.055634 260.149536,305.737213 
	C256.437836,310.131287 250.165573,309.793304 247.079193,305.378784 
M210.189819,455.692780 
	C216.315186,459.097198 222.789597,456.073547 229.085785,456.577393 
	C230.968735,456.728058 232.279907,454.610077 232.084274,452.175751 
	C231.924637,450.189178 232.235764,448.194031 234.534058,447.082458 
	C237.660782,449.063599 241.365219,450.238831 243.395706,453.717590 
	C248.910553,463.165985 258.544098,468.115875 267.006836,473.926147 
	C274.585663,479.129517 283.797760,481.991577 292.393311,485.641663 
	C293.920563,486.290161 294.768341,487.932281 296.661438,487.937195 
	C309.108704,487.969513 320.452972,493.624969 332.644165,495.126862 
	C335.131042,495.433197 337.906189,497.477783 340.196930,496.908691 
	C344.312775,495.886139 348.349945,496.559937 352.256622,496.777222 
	C361.229767,497.276428 370.196381,497.579773 379.145569,497.154236 
	C386.871185,496.786926 394.592499,496.552307 402.200714,494.155518 
	C406.777893,492.713623 412.032104,493.009827 416.849701,492.207153 
	C434.631317,489.244690 450.653320,480.977112 467.322937,474.634521 
	C470.431854,473.451599 472.432800,470.433197 475.245361,469.996155 
	C478.469727,469.495117 481.473877,468.618530 483.731079,466.724884 
	C488.530792,462.698242 494.150146,459.993713 499.402802,456.843994 
	C507.576782,451.942474 513.241333,445.057220 517.693176,437.131897 
	C519.332581,434.213470 521.407532,430.505890 519.764893,426.051239 
	C513.060181,430.875916 506.864594,435.451965 499.170593,438.191345 
	C490.627075,441.233154 482.228302,443.624603 473.240356,443.054382 
	C464.408142,442.494019 455.688324,441.863464 447.579285,436.983124 
	C443.051178,434.257935 438.040863,432.097290 433.830444,428.854431 
	C429.960205,425.873596 425.804474,422.978088 423.051575,418.832489 
	C418.781769,412.402527 414.134583,406.063812 412.278900,398.421051 
	C411.065674,393.424225 408.081573,390.209198 402.928680,390.171509 
	C394.530243,390.110077 386.188965,390.701416 378.040894,393.006714 
	C365.492279,396.557068 365.839874,396.581451 364.026886,409.071655 
	C363.020905,416.002014 361.335175,422.853516 357.875916,429.285065 
	C355.886566,432.983673 352.825714,435.881805 351.224915,439.702942 
	C350.191772,442.169067 348.765656,443.158813 345.688171,441.311981 
	C347.309082,444.301910 346.527954,445.973328 344.765320,447.627747 
	C336.670959,455.225159 326.916504,460.130402 316.803436,464.150208 
	C313.427277,465.492157 309.983002,467.207336 306.072418,467.525513 
	C297.894104,468.190918 289.781830,468.404510 281.614746,467.310791 
	C272.246613,466.056244 262.871735,463.681030 255.639572,458.021332 
	C250.056778,453.652405 243.955795,449.743134 238.925400,444.247101 
	C233.134140,437.919769 228.133072,431.256805 225.611847,423.456360 
	C223.519653,416.983337 221.244812,411.299805 215.845261,407.055908 
	C212.900269,404.741180 212.256302,400.842773 209.014832,398.253326 
	C204.515472,394.659180 198.836823,392.706360 195.143112,388.070007 
	C192.021439,384.151672 187.333099,382.770752 183.280746,384.682312 
	C180.475525,386.005585 178.392944,389.277466 177.278610,393.382935 
	C176.009094,398.060089 175.492416,403.031036 173.659485,407.492126 
	C171.374435,413.053680 170.634796,418.802216 172.427673,424.201141 
	C175.210220,432.580139 180.028488,440.472931 186.479523,446.137604 
	C192.643692,451.550323 200.195648,456.498688 210.189819,455.692780 
M274.060516,437.410034 
	C273.859100,440.230652 273.864410,443.085388 273.405487,445.863464 
	C272.789612,449.591248 274.285217,451.192810 277.830536,452.214081 
	C284.257629,454.065521 290.723663,454.041351 297.275513,453.792999 
	C300.385864,453.675079 304.480988,455.217560 306.415314,453.253876 
	C310.882843,448.718628 317.675110,452.464050 321.966736,447.756561 
	C324.051819,445.469421 328.246887,444.993256 330.079559,442.613556 
	C333.247528,438.499847 337.211426,434.439636 340.803223,431.700531 
	C346.527039,427.335388 347.304504,421.057251 349.665253,415.934784 
	C351.533142,411.881683 352.249207,406.034393 352.244843,400.540131 
	C352.236176,389.655792 350.298767,379.641052 345.346191,370.063477 
	C344.599274,368.619080 344.223175,366.950653 343.875854,365.342590 
	C343.619202,364.154175 343.429962,362.799866 342.222290,362.474670 
	C339.026672,361.614166 338.000580,359.002777 336.813873,356.433014 
	C335.942322,354.545624 334.595398,353.087799 332.568024,352.448639 
	C331.145325,352.000122 329.368988,351.933289 328.758362,350.389069 
	C325.975342,343.351379 318.538757,343.139069 313.221558,341.403870 
	C307.488129,339.532776 301.291809,336.943115 294.684204,337.803223 
	C289.363190,338.495880 283.764923,338.200256 278.666290,339.208618 
	C270.705841,340.782959 265.136658,346.938538 260.546692,353.490265 
	C256.645813,359.058441 253.187897,364.953949 246.278381,367.399048 
	C244.806641,367.919830 244.434875,369.095184 244.484451,370.594116 
	C244.528091,371.913605 244.119751,373.130035 243.465424,374.368896 
	C241.155991,378.741608 236.173050,382.491058 239.868347,388.440216 
	C240.047043,388.727905 239.829254,389.580109 239.526810,389.801270 
	C234.015381,393.832733 237.493561,396.274139 240.802322,399.350952 
	C244.590698,402.873749 243.991837,406.129883 239.656158,408.622040 
	C237.579086,409.815979 236.959763,411.275909 236.868423,413.799133 
	C236.732605,417.550720 239.876755,419.190765 241.048355,422.067932 
	C243.466629,428.006561 246.716766,433.896088 251.809540,437.735718 
	C256.101624,440.971649 261.423218,442.862122 265.259583,446.947784 
	C265.784058,447.506409 266.703735,448.431488 268.010590,447.518921 
	C267.865631,440.474701 268.071320,433.327972 267.249237,426.196899 
	C267.002167,424.053589 266.937897,421.223053 269.548248,420.828247 
	C272.379944,420.399933 273.474365,423.084290 273.696228,425.470764 
	C274.034393,429.108215 273.958069,432.784210 274.060516,437.410034 
M526.965515,363.906219 
	C526.636292,362.981049 526.234863,362.074615 525.989014,361.127838 
	C523.175354,350.293243 519.831604,340.648804 507.517639,335.861725 
	C500.578766,333.164307 493.366272,329.667175 487.071198,325.247803 
	C481.254059,321.163910 474.499481,319.183655 468.347809,315.884644 
	C465.091614,314.138489 460.314026,314.130890 457.285187,317.245056 
	C454.197021,320.420166 459.806122,321.564148 459.685150,324.358673 
	C458.899078,325.932587 457.196869,326.142548 455.863373,325.930084 
	C447.703339,324.630188 442.003052,328.103668 436.976776,334.273895 
	C432.237640,340.091675 427.482269,346.598297 425.789307,353.206360 
	C423.708801,361.327026 421.289886,369.765778 421.758636,378.756500 
	C422.459351,392.197021 426.937714,403.578918 435.891693,413.307129 
	C443.861237,421.965759 454.430908,425.393982 465.607849,427.635529 
	C474.693115,429.457581 484.053162,429.733704 492.426453,426.550781 
	C502.649872,422.664551 511.636475,416.030060 519.333618,407.946014 
	C525.923889,401.024445 527.802551,392.682892 527.910706,383.431061 
	C527.984497,377.110443 527.558350,370.876770 526.965515,363.906219 
M339.268707,324.441162 
	C316.560791,307.623718 305.186066,283.946747 299.042755,257.161133 
	C298.361603,257.446136 297.883972,257.499420 297.814941,257.696167 
	C295.892303,263.172546 296.177979,269.196808 293.610260,274.531250 
	C293.108948,275.572754 293.992065,276.252472 294.732666,277.017853 
	C300.335236,282.807892 298.888275,288.651703 290.942871,291.644043 
	C289.317383,292.256165 288.755127,292.840515 288.166412,294.459442 
	C284.475983,304.608429 282.095764,315.369965 274.701599,323.861053 
	C273.596588,325.130005 272.902771,327.011047 274.456207,329.749054 
	C279.018066,324.315155 285.499390,326.461212 291.164001,325.391083 
	C296.904785,324.306580 303.571350,324.960541 309.077606,326.946198 
	C312.548950,328.198029 316.471283,327.820099 319.225861,329.587708 
	C322.696411,331.814789 326.437775,333.295044 330.018707,335.157074 
	C332.895447,336.652893 335.848602,337.808655 335.638153,341.484924 
	C337.373474,342.365509 339.362091,341.231537 340.232605,342.706757 
	C343.540955,348.313110 349.569489,351.672638 352.479706,357.530151 
	C355.883881,364.381958 360.255371,370.790222 362.148590,378.352051 
	C362.967773,381.623993 364.856476,382.308228 368.157135,381.363495 
	C378.491699,378.405426 389.050629,375.344177 399.795319,377.953552 
	C407.119720,379.732269 408.645569,376.770477 408.970276,369.537933 
	C409.549408,356.637573 414.487396,345.129669 421.195007,334.301697 
	C421.925201,333.122925 422.602509,331.947632 422.163544,330.597504 
	C421.738525,329.290314 420.454742,329.172150 419.263275,329.099579 
	C411.674835,328.637329 404.086304,328.176605 396.311340,327.704041 
	C396.132599,329.515991 398.350952,332.078156 395.211761,332.690613 
	C384.779907,334.725891 374.286530,336.856171 363.661316,334.177185 
	C355.359009,332.083923 347.199707,329.507416 339.268707,324.441162 
M260.551086,485.153412 
	C253.974152,483.112946 250.392578,477.216522 245.230438,473.387604 
	C241.424576,470.564728 237.260910,467.246552 231.705948,470.113556 
	C225.504593,473.314270 218.718842,470.258667 212.408463,471.513672 
	C207.136749,472.562073 203.095169,469.489197 198.769135,468.171814 
	C194.543869,466.885162 189.520706,466.565094 185.993927,463.189087 
	C179.846848,457.304749 172.520599,452.801178 166.992645,446.311035 
	C165.886887,447.234833 166.097290,448.087250 166.103302,448.892334 
	C166.180893,459.301941 168.130753,469.212677 173.194199,478.481323 
	C174.530334,480.927124 175.216705,483.644714 177.761887,485.256653 
	C184.173615,489.317444 189.927292,494.345856 197.344467,496.903229 
	C201.186249,498.227844 204.300964,501.536682 208.067062,503.231567 
	C215.469833,506.563110 223.204605,509.045807 231.237411,510.471069 
	C233.009598,510.785461 234.989365,510.142395 236.545746,511.424347 
	C242.674637,516.472656 250.414230,516.817505 257.619812,518.749023 
	C264.868988,520.692200 272.150269,522.557251 279.288330,524.857300 
	C283.461792,526.202087 287.935638,527.722595 291.914368,527.001160 
	C295.255035,526.395386 297.690765,521.835266 299.687683,519.174927 
	C301.879364,516.255005 304.185181,514.086731 306.922821,511.882904 
	C308.886139,510.302429 311.186401,508.745605 312.501251,505.624969 
	C294.106964,501.586609 276.710175,495.828094 260.551086,485.153412 
M574.042114,409.446075 
	C573.541931,406.724091 571.667053,404.934418 569.827942,402.734222 
	C567.981628,404.296661 567.573303,406.312775 566.692505,408.032257 
	C564.731384,411.860535 562.649292,416.202545 559.937378,418.889191 
	C554.473145,424.302673 548.456177,429.597717 540.306946,431.546387 
	C534.898621,432.839661 531.411804,436.986694 529.299255,442.234680 
	C523.486572,456.674500 511.822174,465.739075 499.370941,473.823303 
	C493.918671,477.363342 487.646423,479.615356 481.890259,482.718842 
	C474.663055,486.615387 466.479523,488.249115 459.432343,492.601746 
	C455.788513,494.852325 451.732605,496.435608 447.662903,498.417755 
	C448.978607,500.377441 449.964752,501.846283 451.096710,503.532288 
	C454.815399,500.975983 455.345612,504.009460 457.642151,505.842194 
	C463.490662,510.509613 469.540375,514.972778 474.685120,520.198853 
	C479.703552,517.411377 482.399902,512.763184 486.993713,510.157196 
	C493.541931,506.442535 499.979584,502.661560 506.790192,499.342834 
	C513.238953,496.200439 520.299744,493.219147 525.253418,487.364258 
	C526.026611,486.450378 527.703613,486.364288 528.715698,485.577576 
	C531.798950,483.180847 535.801208,483.201660 538.740845,479.362000 
	C543.944946,472.564667 549.165466,465.464905 556.301941,460.259552 
	C561.031189,456.810028 563.359985,451.261261 566.664978,446.678467 
	C568.487305,444.151581 568.768555,439.976837 570.211731,436.633667 
	C571.970337,432.559631 572.645569,428.157074 573.400879,423.728394 
	C574.190613,419.098083 572.535583,414.569489 574.042114,409.446075 
M413.992401,689.410706 
	C414.244324,689.193848 414.461853,688.897156 414.753143,688.771606 
	C429.556915,682.390686 435.010895,668.592346 441.225952,655.403137 
	C441.433228,654.963196 441.603119,654.426270 441.556671,653.957764 
	C440.549072,643.790649 440.284576,633.542419 438.391998,622.519165 
	C434.134247,627.480591 431.871002,632.870667 427.877411,637.047180 
	C423.743011,641.370911 424.156128,644.801697 428.214569,649.212891 
	C429.007263,650.074524 429.984863,650.833069 428.946198,652.514038 
	C425.026886,653.709412 423.807159,649.643738 421.447113,647.876648 
	C414.496368,652.743652 410.223114,659.818420 404.790070,665.708923 
	C401.464417,669.314575 398.758545,671.628174 394.015350,670.032166 
	C389.764069,668.601624 388.477539,664.600952 385.626801,662.001831 
	C376.962891,654.102600 368.961121,645.664978 363.609711,634.991699 
	C361.905304,631.592346 358.620209,629.453186 354.459595,627.391174 
	C354.110260,632.759338 354.346191,638.103821 355.820587,641.941956 
	C358.747192,649.560486 359.123657,657.093628 359.136322,664.887390 
	C359.144379,669.845459 361.647919,672.881592 365.970337,674.473755 
	C367.693054,673.829346 367.725861,672.224426 368.603638,671.272705 
	C369.559692,670.236084 370.176666,668.649963 372.021515,668.881470 
	C372.913177,669.962280 372.120453,670.807251 371.686310,671.642029 
	C368.953247,676.897278 369.372742,679.820374 373.850037,683.096069 
	C381.318207,688.560059 388.699890,694.152649 396.780487,698.743774 
	C398.573303,699.762390 399.964966,699.735229 401.287994,698.526672 
	C404.998810,695.136963 409.465759,692.853882 413.992401,689.410706 
M313.745422,541.194214 
	C317.992676,543.397278 320.852264,547.419312 325.236237,549.579834 
	C329.533936,551.697754 333.489349,555.641296 335.511475,559.219666 
	C338.321442,564.192261 342.587952,567.257446 346.016357,571.280273 
	C349.595947,575.480530 352.370880,574.736938 354.053558,569.513611 
	C356.650208,561.453247 360.492157,554.211914 366.453644,548.084839 
	C367.983948,546.511963 369.652924,545.219421 371.322296,543.861389 
	C372.310242,543.057678 373.961823,541.893188 372.798401,540.643066 
	C370.449738,538.119324 368.484161,534.515991 364.972168,533.976318 
	C361.981323,533.516785 360.032013,532.146362 358.332733,530.164124 
	C356.766144,528.336609 354.856934,527.511597 352.759674,526.486450 
	C349.296661,524.793640 345.268158,522.714050 343.441406,519.633301 
	C341.444763,516.265930 340.138275,513.819885 335.785370,513.611877 
	C331.831909,513.423035 328.498871,513.942444 325.040833,516.121216 
	C321.982605,518.048096 320.845154,521.737549 317.573914,523.196533 
	C308.997711,527.021484 307.481506,533.028381 313.745422,541.194214 
M443.948242,554.482788 
	C444.300323,553.200317 444.639374,551.956177 445.787842,551.051758 
	C451.489471,546.561584 454.994995,540.507446 458.244995,534.143616 
	C460.964996,528.817566 459.655792,524.783020 455.254425,521.553040 
	C449.321930,517.199402 443.290833,512.953735 437.077087,509.016815 
	C430.011444,504.540070 425.574615,506.698730 423.947571,514.979858 
	C423.791199,515.775696 423.447815,516.546631 423.112366,517.293640 
	C420.335876,523.477051 415.446777,528.065857 411.124390,533.075500 
	C408.268829,536.385071 408.621826,538.294250 412.614685,540.109619 
	C418.625580,542.842468 423.700317,547.073608 426.843475,552.604675 
	C429.600433,557.456177 432.892578,561.736084 435.898560,566.309509 
	C440.140808,563.364197 442.296295,559.539185 443.948242,554.482788 
M537.253418,411.444336 
	C537.384155,413.451416 535.687378,415.967926 538.371155,417.282501 
	C540.984436,418.562500 542.730896,416.509918 544.446472,414.979034 
	C549.122070,410.806763 552.871155,406.244873 555.945374,400.445251 
	C559.744873,393.277252 559.960266,385.795410 560.735962,378.498566 
	C561.355774,372.667999 559.387756,366.377258 557.671509,360.555115 
	C556.693420,357.236969 557.830750,352.686462 553.047974,350.306610 
	C550.755188,354.201874 548.439087,357.930817 546.341309,361.778778 
	C545.099487,364.056641 544.821350,366.535156 544.518555,369.209961 
	C543.700134,376.439270 544.156250,383.701782 543.350037,390.962585 
	C542.550842,398.159943 537.737183,403.667999 537.253418,411.444336 
M398.366272,513.278259 
	C387.725403,516.022278 376.660950,516.695923 365.515869,519.042603 
	C367.465668,522.928101 369.181427,525.845215 372.203339,527.365051 
	C376.625793,529.589478 379.979309,532.370911 381.440369,537.428345 
	C382.679016,541.716003 387.188171,542.964600 390.687592,543.706604 
	C393.192108,544.237732 394.782349,541.073914 394.519287,537.848816 
	C394.434906,536.813904 395.840942,535.649353 396.583557,534.556702 
	C398.260498,532.089417 400.128967,529.731995 401.594940,527.145874 
	C404.567902,521.901306 403.692780,517.577271 398.366272,513.278259 
M406.118286,630.742615 
	C405.197601,625.586975 404.512146,620.375305 403.299835,615.289185 
	C401.582245,608.083191 401.792206,600.229248 396.741699,594.041077 
	C395.480011,594.484009 395.141479,595.457642 394.958069,596.425476 
	C392.288300,610.514099 391.592926,624.764954 392.567200,639.012024 
	C392.849731,643.143494 393.522186,646.821594 390.454834,649.926758 
	C395.502045,656.633240 396.078918,656.678894 401.299561,651.033875 
	C401.525757,650.789307 401.799774,650.581238 401.990814,650.312927 
	C405.381989,645.549988 411.117035,641.420288 406.121521,634.406921 
	C405.661438,633.760986 406.110809,632.467285 406.118286,630.742615 
M366.032532,618.600098 
	C371.786041,624.361877 372.924957,633.948669 381.348297,638.034485 
	C382.096039,635.261169 383.169403,633.187561 383.119385,631.141418 
	C382.879761,621.335571 384.412720,611.668030 384.961761,601.931641 
	C385.133057,598.893921 385.634888,595.272339 382.131012,593.081055 
	C380.792877,593.647766 379.268860,594.007812 378.085449,594.847778 
	C374.537964,597.365845 371.334534,600.737610 371.822937,605.149780 
	C372.465149,610.951050 372.766327,611.146729 366.871185,611.177917 
	C365.512634,611.185120 363.896515,610.298157 362.717712,611.796814 
	C362.589844,614.441772 365.503967,615.530518 366.032532,618.600098 
M365.436279,592.961975 
	C368.829468,588.524170 373.702667,585.875916 378.056305,582.612183 
	C379.766907,581.329834 380.735046,580.144653 379.207581,578.161011 
	C372.368652,581.161621 371.402679,572.833862 366.373627,571.413635 
	C361.310974,577.587036 358.666870,585.866638 350.779846,589.533081 
	C352.861176,595.611389 353.418304,601.902771 358.468933,606.846802 
	C359.714966,601.639465 360.476166,596.595398 365.436279,592.961975 
M417.071350,567.687439 
	C414.589386,570.548584 412.107422,573.409729 409.700836,576.184021 
	C418.742126,582.984924 429.978668,587.187561 435.229889,598.479736 
	C436.982788,593.485474 436.236633,588.329529 436.722839,583.306580 
	C436.879913,581.683960 436.599152,579.361572 435.016479,578.903931 
	C428.717682,577.082275 425.481750,571.997559 421.861115,567.302551 
	C420.324585,565.310120 419.017120,565.360046 417.071350,567.687439 
M431.074463,610.135498 
	C431.454712,607.023621 429.176300,608.097412 427.544312,607.652405 
	C421.958984,606.129272 414.213043,610.822449 410.755920,601.822266 
	C411.639923,611.261536 412.965912,620.281677 417.212219,629.587219 
	C420.458252,622.156860 427.697296,618.081604 431.074463,610.135498 
M397.409546,571.084412 
	C396.498596,572.669495 396.867035,573.767334 398.449890,574.769714 
	C400.317078,575.952148 401.135193,574.562927 402.225220,573.603210 
	C406.423462,569.906677 408.222473,564.032104 413.524536,561.610535 
	C411.536316,553.630737 407.448151,551.085388 402.579987,554.502197 
	C398.822571,557.139404 396.029816,565.765930 397.409546,571.084412 
M382.418304,556.125793 
	C377.775238,553.409729 374.378326,555.107178 373.991638,560.336548 
	C373.574463,565.978149 379.540497,574.344116 385.111328,575.776062 
	C388.382782,576.617004 389.490479,574.673645 389.569031,571.851624 
	C389.738800,565.755066 385.420135,561.578796 382.418304,556.125793 
M434.093445,290.418823 
	C435.561859,295.308197 436.800903,300.284149 438.598969,305.049133 
	C439.452454,307.311005 440.534393,310.624847 444.068268,309.531067 
	C447.094238,308.594452 450.285767,307.567688 453.249878,304.291138 
	C446.707886,300.301636 442.736511,294.145264 437.364532,289.363495 
	C436.525635,288.616821 434.801971,287.028870 434.093445,290.418823 
M185.979965,365.209045 
	C187.513107,365.839294 189.054871,366.449524 190.577316,367.104706 
	C192.619949,367.983704 194.181137,367.096588 194.252106,365.186829 
	C194.392899,361.398163 194.978348,357.387299 192.023712,353.386139 
	C189.021835,357.137238 185.641342,359.969818 185.979965,365.209045 
M410.792206,591.854492 
	C414.567902,598.489685 416.608734,599.627502 421.772156,597.976013 
	C421.036621,594.467529 412.270325,586.912109 408.404083,586.674438 
	C409.109955,588.278748 409.766327,589.770569 410.792206,591.854492 
z"/>
<path fill="#000000" opacity="1.000000" stroke="none" 
	d="
M298.381958,586.473999 
	C293.754059,582.873535 288.696533,581.397888 283.283997,581.234131 
	C279.906311,581.131836 276.653229,580.592224 273.510803,579.457458 
	C266.222687,576.825623 257.815735,579.991577 250.984283,575.070374 
	C247.166199,577.286255 242.717529,576.406311 239.107925,575.748108 
	C235.162918,575.028748 232.165649,575.751282 228.878128,577.130310 
	C228.272430,577.384338 227.154526,577.398132 227.059265,577.741150 
	C225.609970,582.958984 219.543716,585.396606 218.440765,590.109375 
	C216.544556,598.211670 211.393097,604.637268 208.110260,611.891357 
	C204.119904,620.708862 199.086197,629.311096 195.847336,638.472290 
	C194.580719,642.054871 193.390579,647.091858 191.511627,648.916260 
	C187.483200,652.827759 189.056305,658.278687 185.422638,662.192139 
	C181.191940,666.748718 182.728622,672.813843 186.309311,677.563538 
	C189.499588,681.795410 192.621246,686.042236 196.886749,689.563049 
	C201.757416,693.583252 204.299484,699.773926 207.487915,705.265198 
	C211.165848,711.599487 220.574997,724.470215 225.486801,726.187744 
	C231.000748,720.769470 229.290955,711.794006 222.212372,709.202881 
	C220.943619,708.738342 219.750153,708.396057 218.993774,707.094299 
	C213.641281,697.882141 207.103073,689.577881 199.834610,681.796814 
	C197.946350,679.775391 196.622314,677.194275 195.219543,674.765991 
	C194.533997,673.579346 194.475662,672.074341 195.676666,671.100464 
	C197.130432,669.921570 197.912720,671.439819 199.031296,672.069946 
	C203.606079,674.646790 206.122543,679.870911 211.367966,681.555847 
	C211.790009,681.691467 212.337677,682.170288 212.406250,682.563110 
	C213.688324,689.906372 221.213013,693.809631 222.555634,701.223206 
	C223.035553,703.873291 224.907898,706.258240 226.822510,708.269531 
	C229.721527,707.900269 229.997681,705.687256 230.118256,703.791260 
	C231.166428,687.310608 238.600723,672.103943 239.318436,655.430298 
	C239.611618,648.619385 239.488068,641.185852 242.824478,634.692871 
	C243.876099,632.646301 244.348282,628.916260 247.461914,629.813660 
	C250.506485,630.691284 249.761948,633.912109 249.417175,636.685852 
	C248.564835,643.542908 249.193100,650.783386 247.214005,657.254395 
	C244.230576,667.009155 246.382858,677.303101 242.801041,686.908752 
	C241.649445,689.997131 242.020233,693.786743 242.229034,697.223083 
	C242.803802,706.683167 239.616730,715.549377 237.974258,724.628845 
	C237.196793,728.926636 237.879883,733.213867 236.756119,737.465149 
	C234.862976,744.627014 235.157043,752.313416 233.590195,759.297180 
	C232.221420,765.398071 233.910416,772.030945 230.245819,777.835632 
	C228.918762,779.937622 230.773972,783.229004 230.644287,786.195557 
	C230.304626,793.964539 227.542389,801.334778 227.330719,808.922302 
	C227.166534,814.808105 223.703217,820.049438 225.017456,826.074341 
	C226.229706,831.631714 222.468231,836.187317 221.282669,841.281250 
	C220.605804,844.189453 218.002884,846.082153 215.047745,847.242554 
	C213.225937,846.871155 214.940857,845.234558 214.148300,844.437012 
	C212.984833,844.342346 212.949585,846.700439 211.378998,845.753906 
	C209.910934,836.070984 210.828354,826.630676 213.176300,817.088074 
	C214.825531,810.385315 215.358185,803.320923 215.620163,796.388977 
	C215.867126,789.854126 219.027954,784.051392 219.205521,777.479431 
	C219.419022,769.576599 222.056931,761.883240 222.013077,753.869751 
	C222.000595,751.589233 222.638092,749.253967 223.279236,747.030762 
	C225.113220,740.671204 223.168167,733.888428 217.485764,730.718811 
	C213.406204,728.443298 210.477905,724.851746 208.081238,721.576111 
	C202.359589,713.756104 195.855545,706.865234 189.081192,700.027405 
	C186.322922,697.243347 183.479935,693.763794 182.705856,689.277405 
	C182.304642,686.952209 178.864761,687.070740 177.953918,684.904846 
	C175.522430,685.973938 173.279602,687.038147 172.725922,689.866516 
	C170.830612,699.548767 165.125687,707.712646 161.947372,716.877319 
	C159.964478,722.595032 158.464478,728.474976 155.975235,734.023193 
	C150.441574,746.356873 146.924957,759.607727 141.157532,771.656921 
	C136.673080,781.025574 133.637329,790.915466 129.128036,800.233276 
	C127.124901,804.372437 125.865898,809.202637 123.801636,813.361694 
	C122.119751,816.750305 120.323639,820.083069 118.995819,823.645996 
	C116.650734,829.938538 112.220154,835.202271 110.318604,841.787781 
	C109.732079,843.819031 107.029282,846.380249 104.400986,843.510559 
	C103.309952,842.319397 101.557472,844.171326 101.117821,841.529053 
	C101.556618,840.087952 102.921898,837.822754 100.016075,836.279724 
	C101.186981,833.866943 104.192551,832.340027 102.223457,829.153748 
	C101.773262,828.425232 102.737770,826.597046 103.375519,825.456238 
	C110.265099,813.132263 112.564491,799.042542 118.362549,786.236328 
	C120.030418,782.552429 120.517288,777.110107 123.082520,774.348083 
	C126.774635,770.372864 127.494827,765.460144 129.706528,761.155029 
	C133.617126,753.542969 136.255005,745.261719 139.199677,737.178284 
	C140.065903,734.800415 141.333725,733.125732 143.774139,732.134521 
	C142.917786,727.304504 143.639954,723.048462 146.420547,718.743530 
	C148.898010,714.908020 150.020187,710.194031 151.717819,705.858826 
	C153.453308,701.426819 155.213058,696.813049 157.529495,692.864380 
	C160.890778,687.134583 162.873260,680.986694 164.481171,674.879822 
	C165.921204,669.410522 169.807205,665.621399 171.706085,660.560974 
	C173.735428,655.152771 176.377533,649.874939 179.021301,644.748352 
	C181.454773,640.029541 182.518875,634.856262 185.423157,630.146667 
	C188.495758,625.164124 191.437286,619.489746 193.166107,613.548279 
	C194.669144,608.382690 196.690521,603.644775 200.360352,599.325439 
	C203.183350,596.002747 204.228317,590.766052 203.169449,586.382751 
	C200.914810,577.049438 200.705582,567.769104 202.053177,558.396179 
	C202.696045,553.924988 201.034744,551.181091 196.597443,551.922058 
	C192.104980,552.672241 189.392960,549.087158 185.445404,548.513184 
	C183.751373,548.266907 181.493347,546.673401 179.384918,545.808289 
	C175.197571,544.090088 170.908264,542.985596 167.649734,538.897217 
	C165.306381,535.957153 159.128189,537.491455 157.192871,532.588379 
	C150.710892,532.780518 147.779175,526.640747 142.625977,524.314026 
	C139.488159,522.897217 136.930252,519.445740 134.167984,517.834534 
	C130.326813,515.593994 127.725708,512.769348 125.495888,509.439270 
	C121.162827,502.968140 114.933281,498.184052 109.349976,493.238617 
	C104.371994,488.829376 103.015907,482.220764 97.460892,478.401428 
	C95.148727,476.811676 95.552399,472.057037 93.101974,469.219879 
	C89.450584,464.992157 88.185837,459.275360 87.581047,454.131592 
	C87.043816,449.562378 86.530281,444.709351 86.984840,439.925873 
	C88.410187,424.926636 89.421944,409.883636 91.126785,394.918304 
	C91.588081,390.868988 93.740753,387.118683 94.320145,382.791199 
	C95.710205,372.408966 98.831070,362.275909 99.777397,351.797791 
	C100.165337,347.502319 102.798416,344.102417 103.467705,339.867798 
	C104.463348,333.568359 106.463707,327.423676 108.107811,321.232086 
	C109.259842,316.893616 110.682983,312.622589 111.712646,308.257202 
	C113.210854,301.905426 113.513527,295.077179 116.089600,289.228973 
	C118.648605,283.419525 118.955658,277.269257 120.994049,271.543579 
	C123.060837,265.738159 120.600586,260.431885 120.493362,254.899628 
	C120.471146,253.753418 119.284470,253.493439 118.356941,253.083176 
	C116.996239,252.481293 115.416069,252.001923 114.432617,250.984146 
	C109.619949,246.003372 102.760292,245.046936 97.153770,241.795547 
	C93.158508,239.478592 88.190681,239.475464 84.819145,235.939270 
	C84.000893,235.081085 82.309021,234.347656 81.222366,234.566650 
	C73.221695,236.179077 70.103767,229.296188 66.779892,224.994339 
	C61.800884,218.550430 65.161148,208.329224 72.194206,204.065582 
	C74.862038,202.448273 76.828293,200.018555 79.212593,198.116379 
	C85.650803,192.980057 92.549484,188.473846 98.956635,183.285843 
	C106.561935,177.127670 114.338890,171.113846 122.312187,165.365036 
	C128.511261,160.895477 134.792816,156.250992 140.767014,151.326096 
	C144.260178,148.446472 147.688354,144.823257 152.427063,143.327087 
	C157.298462,141.789017 159.766953,136.926926 164.014542,134.353836 
	C171.628693,129.741364 178.809677,124.451393 186.599197,120.074692 
	C190.686737,117.778030 193.891708,113.655205 198.135345,111.951324 
	C204.578018,109.364517 210.380814,105.641159 216.698196,102.948631 
	C218.871292,102.022446 220.799255,100.800652 222.840515,99.711739 
	C233.364090,94.097954 244.378464,89.572197 255.247421,84.707771 
	C262.825439,81.316208 270.585999,78.490402 278.161743,75.194107 
	C293.005585,68.735374 308.252869,66.512520 324.238159,68.619560 
	C326.862762,68.965523 329.547943,68.938934 332.204926,68.935173 
	C338.791504,68.925850 345.088715,70.124802 351.042297,73.029861 
	C353.931641,74.439720 357.100037,73.301468 360.225403,73.856575 
	C367.799225,75.201797 374.343506,79.931610 382.173431,79.966377 
	C386.547363,79.985802 389.856842,83.753845 394.742889,83.171623 
	C396.051483,83.015701 399.773621,85.293587 402.116119,86.858406 
	C408.140808,90.882919 415.985718,90.118179 421.801086,94.418129 
	C425.842499,97.406410 430.776459,98.226059 435.001617,100.353806 
	C443.691162,104.729767 451.897491,110.245575 460.459686,114.846420 
	C466.297760,117.983467 472.170410,121.021202 477.036743,125.321434 
	C482.614990,130.250748 489.505310,133.292816 494.524811,139.207581 
	C497.437531,142.639740 500.541473,146.681046 504.979919,148.805832 
	C509.567383,151.001953 513.020203,154.679184 515.814026,158.618988 
	C517.694519,161.270813 519.765015,163.286606 522.218262,165.282227 
	C524.329041,166.999237 525.708252,169.546768 527.048462,172.042313 
	C529.779480,177.127563 534.112915,181.021057 537.737976,185.439102 
	C538.619141,186.513031 539.300354,187.469391 539.600159,188.815918 
	C539.848267,189.930511 540.262634,191.846420 540.813782,191.924606 
	C545.925903,192.650009 546.062866,197.275330 548.328186,200.427811 
	C554.767090,209.388260 558.995056,219.511429 564.312744,229.036789 
	C567.368835,234.511139 570.801086,239.889069 573.313171,245.542740 
	C575.980408,251.545624 580.132935,257.140594 581.226501,263.555542 
	C582.408020,270.486359 585.594360,276.639648 588.586853,282.419617 
	C594.216858,293.294220 597.546265,304.936646 602.310608,316.058807 
	C604.836670,321.955688 607.211487,327.917603 609.636719,333.857391 
	C611.062134,337.348541 610.598755,341.752960 614.673462,343.997559 
	C615.079285,344.221130 615.054932,345.537262 614.956909,346.311676 
	C614.449890,350.316132 615.747986,353.698547 618.061035,356.916351 
	C619.902039,359.477448 621.308655,362.206360 620.733154,365.693329 
	C620.037720,369.906860 623.086914,373.348633 624.561646,376.777222 
	C626.926819,382.275909 627.080261,387.996521 627.966675,393.495392 
	C628.619446,397.545197 630.046936,401.464081 630.289673,405.582458 
	C630.942505,416.658264 631.230896,427.809448 628.182678,438.524902 
	C626.848328,443.215576 625.355530,448.177155 622.329346,452.318268 
	C620.644653,454.623657 619.678711,457.139343 619.172119,460.044800 
	C618.625549,463.179443 615.970276,466.057648 614.231445,468.066223 
	C605.977661,477.600586 600.302429,489.133545 590.135193,497.355438 
	C586.206299,500.532623 581.568298,504.516449 579.183899,509.839020 
	C578.259827,511.901794 576.371094,513.445923 574.264343,514.655640 
	C565.693542,519.577209 558.914856,527.051514 549.969604,531.557739 
	C547.391907,532.856262 545.713745,536.079346 543.837524,538.580933 
	C542.665649,540.143311 543.772156,541.718140 544.424133,543.261780 
	C547.061096,549.504883 552.068665,553.900391 556.282104,558.949280 
	C559.668274,563.006958 565.491150,565.185852 566.183716,571.397156 
	C566.207947,571.614990 566.665344,571.845337 566.963074,571.963013 
	C574.314941,574.871338 575.950012,583.873718 583.028992,587.042664 
	C585.656067,588.218628 585.662659,591.201721 587.491882,593.133240 
	C592.348816,598.261902 599.512878,596.508179 604.689148,600.054138 
	C608.893127,596.959106 614.806641,600.937012 619.265686,594.952759 
	C622.525146,590.578491 628.298706,587.026367 633.188477,583.427856 
	C641.348145,577.422913 649.785217,571.792908 657.903687,565.734619 
	C664.782043,560.601685 672.213989,557.462708 680.670044,560.049927 
	C685.736511,561.600098 688.385437,558.801086 691.459351,556.204468 
	C702.161133,547.164429 712.575134,537.689087 727.285950,535.562683 
	C731.043518,535.019592 732.907593,532.914368 732.882874,528.711914 
	C732.758972,507.659485 732.812195,486.605133 732.946472,465.552368 
	C733.038330,451.148895 733.822571,436.735107 733.452454,422.347687 
	C733.112244,409.123260 733.981750,395.950470 734.272217,382.766327 
	C734.549133,370.194946 734.285034,357.652039 734.332336,345.097290 
	C734.363525,336.811127 735.940979,328.591034 742.333313,322.358307 
	C745.498047,319.272614 748.726196,320.286377 751.321899,323.067810 
	C757.519226,329.708527 758.621887,338.045013 756.924561,346.334412 
	C755.152161,354.990692 756.433167,363.502472 756.692810,372.002045 
	C757.168640,387.580414 757.211487,403.157990 757.313538,418.730682 
	C757.503357,447.697083 757.253418,476.666382 757.189514,505.634460 
	C757.168640,515.123962 757.097534,524.613892 757.162659,534.102844 
	C757.203552,540.054260 759.515198,543.154419 765.326721,544.750732 
	C767.575684,545.368469 768.349792,547.218933 769.729736,548.562744 
	C784.614685,563.057434 787.173523,580.466125 782.003479,599.825684 
	C778.655273,612.363098 771.622192,622.275696 761.466431,630.133118 
	C757.371155,633.301575 756.367371,637.605713 756.654236,642.520691 
	C757.331848,654.130554 756.995300,665.729065 756.558044,677.351746 
	C756.044800,690.994507 756.219543,704.666443 756.247375,718.325378 
	C756.283997,736.293945 757.274109,754.259888 756.165466,772.231995 
	C755.824585,777.757507 754.519470,783.085205 753.231812,788.392761 
	C752.093201,793.086121 746.492798,794.306946 741.996155,794.006470 
	C731.028259,793.273376 733.844788,784.523621 733.169617,778.990479 
	C730.759766,759.240662 731.270691,739.320679 731.588013,719.444458 
	C731.606506,718.285034 731.810486,716.996948 731.393738,715.989990 
	C730.570984,714.002014 732.376465,710.964050 729.205261,709.971130 
	C726.240234,709.042664 724.005249,710.872131 722.043457,712.595825 
	C717.420715,716.657776 712.496033,720.252502 707.270508,723.494934 
	C705.094482,724.845093 703.092834,725.495239 700.398926,725.609741 
	C695.004761,725.838928 691.974182,730.559753 688.552185,733.936829 
	C683.181580,739.237244 676.583374,743.065430 671.455139,748.512207 
	C665.265381,755.086487 657.180420,759.175476 650.104309,764.388611 
	C643.633667,769.155579 637.435486,775.596558 628.666504,777.204895 
	C626.592041,777.585388 624.874268,779.770508 622.930847,781.030457 
	C616.617676,785.123657 608.973938,785.973267 602.235535,789.308533 
	C599.608643,790.608643 594.942749,790.088867 591.309998,791.459045 
	C589.057129,792.308716 588.142456,793.323853 588.701111,795.881226 
	C590.313904,803.263855 592.392822,810.652344 592.894287,818.131958 
	C593.222656,823.028931 595.723572,828.524597 591.894104,833.167542 
	C590.802979,834.490540 593.424683,835.717651 591.209351,836.815552 
	C588.714844,834.562317 585.210388,833.470642 582.960022,830.458984 
	C581.981995,829.150146 581.050293,828.212341 582.074524,826.560364 
	C582.663330,825.610718 582.510681,824.396301 581.831665,823.737793 
	C575.966858,818.050537 577.329895,809.851685 575.111877,802.978455 
	C573.542969,798.116455 571.802673,792.437866 571.925842,787.299255 
	C572.118408,779.262207 566.961914,772.457336 567.986145,764.430603 
	C568.271484,762.194397 566.082031,760.383118 565.523193,758.048584 
	C563.367737,749.044556 562.544556,739.762573 560.294678,730.845703 
	C557.377808,719.285706 555.583008,707.571045 553.436951,695.892029 
	C551.962646,687.868835 550.455688,679.820801 549.191772,671.792847 
	C548.107544,664.905945 547.257812,657.888123 546.559692,650.897644 
	C546.090149,646.196350 546.677734,640.603882 544.309814,637.076782 
	C541.357239,632.678711 542.264709,628.863892 542.501587,624.621216 
	C542.510864,624.455200 542.501648,624.287842 542.495667,624.121338 
	C542.395752,621.341919 540.339661,616.957764 544.386719,616.659973 
	C547.721130,616.414612 551.633179,620.102234 551.578369,623.787537 
	C551.475403,630.706238 554.793762,636.993835 554.230408,643.964844 
	C553.967224,647.222229 555.181519,650.719482 556.236572,653.940796 
	C559.648987,664.360168 562.021790,675.005676 564.478271,685.682312 
	C566.982727,696.567505 566.572815,707.985291 570.115112,718.428406 
	C572.730957,726.140137 572.886780,734.212280 575.818848,741.894043 
	C578.813965,749.741089 579.139465,758.580383 580.954529,766.915466 
	C581.888306,771.203674 582.700623,776.393555 588.631958,776.331604 
	C593.023560,776.285767 597.543091,775.545654 601.758911,774.287842 
	C610.765442,771.600769 618.783264,766.412659 627.457581,763.078674 
	C633.421204,760.786682 638.159790,756.686707 643.247498,753.593872 
	C649.066772,750.056519 654.275513,744.462219 659.971130,740.136169 
	C667.186523,734.656006 673.211792,727.799988 680.794434,722.808838 
	C682.774231,721.505737 684.122742,719.643494 685.844055,717.321411 
	C679.329102,711.002258 676.080322,702.400024 670.142639,695.499084 
	C666.981140,691.824707 663.454590,688.049866 662.124634,682.680786 
	C661.227112,679.057678 657.378235,676.466858 655.360229,672.960754 
	C646.622437,657.779724 639.176453,642.112732 634.380249,625.157837 
	C633.023193,620.360535 630.251404,616.019165 630.197205,610.719788 
	C630.165466,607.622192 627.089111,606.048950 625.076538,604.274780 
	C623.657471,603.023804 621.703308,604.399658 620.573669,606.134766 
	C618.225891,609.741150 615.817749,613.308594 613.404602,616.871826 
	C611.836304,619.187500 609.839661,620.209534 607.773560,617.679321 
	C606.320801,615.900208 604.476440,615.957153 602.608948,615.381165 
	C597.766724,613.887573 593.140381,615.716614 588.419312,615.721619 
	C587.614075,615.722473 586.809143,615.913818 584.743042,616.179077 
	C588.190491,610.986877 583.278137,607.385254 583.813721,602.875610 
	C577.950073,601.354126 569.055054,592.375244 568.354187,587.026978 
	C565.261169,586.154297 561.608521,585.447144 561.756287,580.865906 
	C557.335205,581.003906 556.762756,577.601013 555.257568,574.243225 
	C553.141785,575.154175 551.024841,574.753357 550.598083,571.423645 
	C550.406860,569.931641 549.474365,568.810486 548.140747,568.565125 
	C544.549988,567.904297 543.396057,565.877258 544.597351,562.075195 
	C540.680786,562.502258 538.963623,560.189819 537.459839,557.475525 
	C535.223083,553.438171 530.433472,552.953674 527.143494,550.330933 
	C526.264404,549.630127 524.642883,550.320190 523.367188,550.931824 
	C514.506531,555.180359 506.296143,560.425171 498.930847,566.923767 
	C496.252899,569.286621 493.094788,570.894714 489.895630,571.939026 
	C486.972046,572.893311 486.371735,574.513977 486.241791,577.006958 
	C485.669708,587.983643 487.368042,598.860474 487.671295,609.798889 
	C487.771820,613.425659 488.256226,617.051025 488.198303,620.671143 
	C488.019196,631.873108 488.989716,642.985535 489.849274,654.142395 
	C490.475250,662.267761 490.305664,670.545593 489.643829,678.783936 
	C489.081879,685.778564 489.970612,692.878113 489.702087,699.911560 
	C489.496277,705.302673 488.896729,710.755188 487.714874,716.010010 
	C486.630310,720.832397 476.810425,725.514221 472.050354,724.047180 
	C470.151062,723.461853 469.050812,721.910522 468.330017,720.226929 
	C467.279083,717.772156 466.362091,715.165588 466.950409,712.459229 
	C469.192261,702.146667 466.188751,691.957825 466.347595,681.696106 
	C466.541718,669.152344 465.851837,656.615906 465.880829,644.064331 
	C465.894592,638.108765 465.027771,631.988525 464.829254,625.961731 
	C464.470428,615.068909 461.928253,604.422485 461.650238,593.543335 
	C461.629730,592.740906 461.420471,591.326965 461.051971,591.239685 
	C451.363647,588.943970 459.075012,582.584839 458.145935,578.300415 
	C457.788879,576.653687 460.071747,575.357117 461.463867,574.175110 
	C462.972076,572.894470 462.955292,569.595642 466.012390,570.411011 
	C469.100006,571.234497 469.126190,574.261475 469.385529,576.553955 
	C470.168274,583.472473 470.389587,590.452637 471.076935,597.384216 
	C473.281799,619.620300 474.976929,641.929810 475.235870,664.234802 
	C475.380676,676.705505 477.009155,689.137085 476.165771,701.624207 
	C476.026184,703.690613 475.652435,706.005188 477.613220,707.736511 
	C480.263428,706.935059 479.824493,704.748108 479.826111,702.827515 
	C479.847870,676.610962 480.524048,650.394836 479.223297,624.178772 
	C478.931030,618.287659 478.827881,612.314331 478.863220,606.374451 
	C478.916382,597.439148 477.190247,588.460144 475.773407,579.570984 
	C475.389008,577.159241 474.363129,574.573792 471.885651,572.841370 
	C469.539093,571.200500 470.016144,568.604736 472.469482,567.720764 
	C477.725677,565.826965 480.638550,559.820740 486.839996,559.793884 
	C487.951721,554.954468 495.711243,557.610718 495.985046,551.700012 
	C496.011047,551.138489 497.090759,550.182495 497.710297,550.158508 
	C506.656921,549.812012 511.331726,541.249268 519.176270,539.026184 
	C525.404480,537.260986 528.168213,531.737671 532.521973,527.951721 
	C533.685730,526.939697 534.676270,525.849182 536.402954,526.220703 
	C537.889465,526.540588 539.282104,525.924011 539.913513,524.808533 
	C541.424927,522.138367 544.064819,521.318604 546.501343,520.037964 
	C548.630737,518.918701 550.416870,516.192566 551.892456,515.595215 
	C558.385803,512.966675 560.737549,505.839722 567.023621,503.054718 
	C570.266357,501.618042 572.996704,498.546478 575.366699,495.717712 
	C580.304810,489.823547 585.211243,483.913635 590.271423,478.144318 
	C593.416809,474.558105 598.016479,470.870514 598.867554,465.249420 
	C599.119629,463.585083 600.344666,462.377716 601.714233,461.289856 
	C604.833374,458.812286 607.960388,456.331360 607.568481,451.596558 
	C607.414062,449.730743 609.353882,448.921478 610.521729,447.801483 
	C613.665588,444.786377 617.084595,442.321899 615.527527,436.717926 
	C614.802551,434.108734 618.009277,431.349884 617.918335,427.842834 
	C617.745972,421.204559 617.423279,414.483795 617.578247,407.964905 
	C617.706116,402.585358 615.809448,398.071350 615.172729,393.144318 
	C614.237732,385.909302 613.318970,378.521118 609.504456,371.993073 
	C609.421265,371.850677 609.314331,371.681458 609.323853,371.531464 
	C609.830200,363.562012 604.316589,357.586029 602.511108,350.503540 
	C601.696655,347.308472 601.422974,343.855011 600.080566,340.670929 
	C598.377686,336.631836 597.088013,332.406830 594.593994,328.734100 
	C594.317871,328.327515 593.606812,327.811920 593.694458,327.621002 
	C597.015564,320.389069 588.338623,317.362640 587.950134,310.937500 
	C587.600281,305.153320 583.778625,299.696320 581.942932,293.874573 
	C580.658630,289.801727 577.605042,286.317627 577.922791,281.585114 
	C577.966248,280.937164 577.417053,279.178802 575.760803,279.337250 
	C572.526245,279.646698 573.112183,278.046631 573.312073,275.647308 
	C573.569946,272.553131 571.128113,269.875641 569.945801,267.084259 
	C568.008362,262.509918 565.088501,257.900757 563.250610,253.551712 
	C560.607666,247.297791 555.137573,242.245987 554.749451,235.040970 
	C554.598572,232.240189 551.566650,231.357666 550.736389,228.897110 
	C550.140076,227.129639 548.081177,225.786224 550.466675,223.387375 
	C548.440247,223.618332 547.486877,224.535843 546.450378,222.677505 
	C542.410217,215.433640 537.872192,208.467484 533.489502,201.436279 
	C529.543335,195.105331 524.300964,189.913422 520.427002,183.663254 
	C519.440063,182.070923 518.324341,181.218643 516.513306,181.094589 
	C516.038086,181.062057 515.220398,180.832077 515.169495,180.573013 
	C514.245850,175.872467 509.227814,174.311890 507.435394,170.426697 
	C506.706879,168.847534 505.997681,166.849899 504.657196,166.537933 
	C500.433258,165.554932 498.713348,162.190536 496.687897,159.125305 
	C493.590302,154.437607 487.694031,153.096252 484.439117,148.159546 
	C483.059998,146.067871 478.421143,145.044968 476.067017,142.559479 
	C472.215973,138.493591 466.883209,136.885971 462.477753,133.741272 
	C459.064392,131.304718 455.099518,129.500992 451.388458,127.493813 
	C449.495361,126.469902 448.046600,124.962128 446.477234,123.806946 
	C443.821045,121.851761 440.343842,122.990875 437.815216,120.384926 
	C436.328979,118.853226 436.889374,117.943069 437.062805,116.539543 
	C435.932587,116.708206 434.198364,117.338509 433.928528,116.950478 
	C430.823517,112.485321 425.156464,111.510727 421.115540,110.526878 
	C415.219971,109.091461 410.961365,104.024437 404.610443,104.253654 
	C402.931122,104.314255 400.999420,103.413025 399.540039,102.426315 
	C394.803009,99.223640 389.274139,98.311157 384.129303,96.352806 
	C376.673981,93.514977 368.444672,93.255013 361.485016,89.042801 
	C359.057678,87.573685 356.459229,87.228111 354.278717,90.005814 
	C351.510559,86.901169 348.227417,86.048119 344.632629,87.083740 
	C342.243011,87.772163 340.146118,86.566589 338.468903,85.770988 
	C333.402130,83.367569 327.821564,84.268005 322.582458,82.448128 
	C318.064484,80.878754 312.606720,82.127625 307.574982,81.898689 
	C299.784607,81.544258 293.215424,85.842155 285.991730,87.633232 
	C277.539337,89.728943 269.544586,93.863037 261.543427,97.531876 
	C253.442825,101.246330 245.450806,105.216476 237.421906,109.078857 
	C227.170029,114.010612 216.644714,118.338120 206.979538,124.705063 
	C199.484833,129.642197 190.280014,132.066269 183.009125,137.651840 
	C175.923798,143.094849 168.289948,147.792984 160.906403,152.686508 
	C152.069809,158.543045 144.886475,166.437195 135.549683,171.656769 
	C132.581802,173.315903 129.079514,175.519745 126.916107,178.787552 
	C124.562843,182.342148 120.265945,184.055008 117.028389,185.781158 
	C109.053246,190.033157 103.169273,196.891144 95.217880,201.242355 
	C90.358093,203.901764 85.666092,208.467056 81.268097,212.586136 
	C78.624687,215.061920 79.575401,219.022598 83.827759,220.318527 
	C88.439552,221.723999 91.914680,226.158585 97.432793,225.165375 
	C99.079819,224.868912 100.688942,226.392242 101.378525,227.868942 
	C102.722687,230.747406 104.814934,232.205017 107.885239,232.266922 
	C112.559990,232.361160 116.073090,234.492294 119.290413,237.789658 
	C121.686615,240.245483 125.260582,240.925964 128.254410,242.196793 
	C133.521927,232.164322 135.796204,220.846771 142.805405,211.713760 
	C144.451996,209.568253 145.982346,207.445099 148.584259,206.615295 
	C150.179626,206.106506 150.660126,205.126480 150.792114,203.711487 
	C150.997833,201.506210 152.551727,201.110367 154.342896,201.058807 
	C155.680786,201.020309 157.182053,200.889618 157.807953,202.399094 
	C158.529114,204.138336 157.078247,204.969482 156.114319,206.136642 
	C154.027740,208.663193 155.101974,212.092911 153.504318,215.133987 
	C149.467743,222.817429 145.740311,230.835907 143.334274,239.138962 
	C141.877594,244.165848 141.049606,249.739639 139.405426,254.596054 
	C136.317123,263.718018 134.782913,273.184875 131.873947,282.331299 
	C128.544815,292.798828 124.584175,303.272125 122.769020,314.016907 
	C121.123306,323.758698 116.478294,332.379730 114.815880,341.941315 
	C114.172981,345.639038 115.405602,349.470184 113.667397,353.148132 
	C110.150620,360.589386 109.584000,368.951202 107.927383,376.792694 
	C106.282051,384.580719 106.051094,392.953583 104.164093,400.823700 
	C102.686691,406.985474 102.427139,413.281952 101.037315,419.446289 
	C100.256622,422.908905 98.695923,426.532196 99.751228,430.429779 
	C101.212288,435.826019 99.148651,441.678406 101.748810,447.001831 
	C102.531067,448.603394 100.368767,449.527496 100.344833,451.225800 
	C103.168633,453.148102 102.643211,456.242737 103.460121,458.995575 
	C104.544945,462.651367 106.452530,467.196625 109.671410,469.869202 
	C112.326912,472.074005 112.183868,474.178497 111.622429,476.570007 
	C116.587914,480.522552 119.386757,486.022461 124.019402,490.018951 
	C129.802505,495.007874 134.028549,501.961090 140.163834,506.328522 
	C144.535843,509.440704 147.682541,513.870605 152.700653,516.448364 
	C155.756165,518.017944 159.166260,518.975464 162.222214,520.760010 
	C167.969269,524.116028 173.477448,527.892639 179.021057,531.484863 
	C184.574677,535.083618 190.367065,537.477234 196.461258,539.739258 
	C201.529160,541.620300 206.959824,542.684753 211.516663,546.018738 
	C218.763870,551.321350 220.155167,555.774719 216.530197,564.068787 
	C220.322174,564.298035 223.762527,564.701477 227.116852,561.524719 
	C229.351135,559.408752 233.175720,561.244751 236.305145,561.405823 
	C248.865891,562.052429 261.033478,564.487427 273.118683,567.987183 
	C276.280640,568.902832 280.269135,567.180115 283.632843,569.387573 
	C288.112366,572.327454 293.201691,571.313660 298.102814,571.941284 
	C306.834503,573.059265 315.936554,574.703125 323.282318,580.216614 
	C327.579956,583.442322 326.594391,589.116272 327.040466,593.702026 
	C329.306152,616.992310 331.420990,640.306091 332.997589,663.651550 
	C334.168518,680.990051 334.594666,698.386047 334.975739,715.764709 
	C335.053009,719.289551 333.724365,722.949463 332.530975,726.368103 
	C331.362488,729.715149 328.694977,732.149048 325.039673,732.018921 
	C321.390533,731.889160 318.122772,730.849426 316.479797,726.533142 
	C314.884827,722.342957 313.446472,718.369690 313.107727,713.767578 
	C311.489441,691.782349 309.281158,669.840210 307.705109,647.852417 
	C306.989502,637.868896 307.366699,627.847595 306.106018,617.835449 
	C304.978088,608.877441 302.708191,600.072449 302.483612,590.990417 
	C302.426361,588.674194 299.647064,588.398132 298.381958,586.473999 
M646.002197,622.006348 
	C646.002197,622.006348 645.980835,621.991028 645.838501,622.718933 
	C644.730896,625.289856 646.064209,627.421021 646.759583,629.820801 
	C647.881653,633.692993 650.236877,633.433289 652.845154,632.266296 
	C656.195129,630.767456 659.531860,629.034851 659.964966,624.681641 
	C660.313721,621.176514 662.390869,619.650513 665.757141,620.092041 
	C673.645081,621.126831 679.822205,616.918152 686.141968,613.403931 
	C691.896606,610.203857 692.102356,607.755005 687.854004,602.671570 
	C687.114380,601.786621 686.711853,600.617676 685.963074,599.742981 
	C682.252197,595.407532 682.298035,589.169434 678.698303,584.884399 
	C675.816345,585.013428 673.582336,586.106689 671.499878,587.497131 
	C663.077942,593.120422 655.312866,599.663330 646.638306,604.954712 
	C640.046448,608.975708 639.908813,617.035034 646.002197,622.006348 
M722.589294,549.806213 
	C717.217590,552.480652 711.284119,553.880737 706.500061,557.926208 
	C700.973083,562.599976 694.974060,566.727600 691.716370,573.505554 
	C691.003540,574.988586 690.087708,576.513855 690.983826,578.241882 
	C694.891785,585.777710 698.293274,593.647034 702.910339,600.722046 
	C706.675537,606.491821 709.031189,612.937744 712.970032,618.646362 
	C716.041565,623.097839 716.859070,628.435913 724.099243,629.070740 
	C728.026794,629.415100 729.789673,628.479858 730.115967,625.508362 
	C730.609741,621.011047 731.714172,616.248413 729.817566,611.880249 
	C725.703674,602.405579 723.286621,592.872375 723.245728,582.271667 
	C723.217407,574.934509 725.165100,569.527649 729.535889,564.200195 
	C732.350647,560.769348 735.435608,557.301086 735.733582,552.476257 
	C735.862488,550.388000 735.518799,547.580322 733.207336,547.890259 
	C729.865723,548.338440 726.148621,546.890503 722.589294,549.806213 
M755.965454,557.547180 
	C748.293701,561.583435 741.516174,566.672058 737.337891,574.478088 
	C733.151550,582.299072 731.918518,590.034058 736.786865,598.427185 
	C741.905762,607.252319 750.525208,610.663757 758.935974,614.478577 
	C761.396057,615.594421 763.543030,613.626465 764.684204,611.015625 
	C767.444641,604.699951 769.861816,598.341980 770.924316,591.432190 
	C772.502686,581.169128 771.917114,571.497986 764.674316,563.378479 
	C762.491821,560.931763 761.122864,556.996521 755.965454,557.547180 
M322.323059,626.225220 
	C319.465698,618.170959 321.514130,609.441284 318.819275,601.331604 
	C316.937531,595.668945 318.387939,589.058228 313.904602,584.088440 
	C313.097504,583.193726 312.520264,582.057800 311.126007,582.650940 
	C309.940857,583.155029 309.336243,584.284790 309.589661,585.515137 
	C311.119598,592.943481 311.711914,600.618286 313.342621,607.888062 
	C315.077179,615.620728 316.724884,623.392395 316.702576,631.102905 
	C316.626190,657.520203 319.270996,683.781799 320.268524,710.128662 
	C320.352539,712.348328 321.448730,713.857971 322.863892,715.323425 
	C323.580933,716.066040 324.295776,716.844788 325.414673,716.330139 
	C326.422028,715.866821 326.936340,714.856201 326.700775,713.846069 
	C325.814331,710.045166 326.734558,706.237915 326.551971,702.489990 
	C326.022705,691.627075 325.491852,680.757568 324.637024,669.899841 
	C323.513763,655.633301 321.948853,641.314514 322.323059,626.225220 
M707.084595,640.761963 
	C707.418030,637.460266 705.498962,635.223022 703.610291,632.838379 
	C702.778992,633.126770 702.064026,633.203369 701.566162,633.572632 
	C689.795349,642.303345 677.325928,649.861572 664.049683,656.083130 
	C661.926941,657.077942 661.431458,658.580933 662.041077,660.982422 
	C662.982056,664.689270 666.026184,666.840210 668.005432,669.740051 
	C668.704590,670.764282 671.074829,672.172363 672.873840,670.375183 
	C677.585388,665.668579 683.844482,663.435486 689.528381,660.472046 
	C694.515503,657.871948 698.010132,653.138123 703.737244,651.685791 
	C710.523132,649.965088 711.277649,647.308899 707.084595,640.761963 
M674.580017,644.098083 
	C681.511414,638.656433 689.658203,635.065491 696.523254,629.449585 
	C699.498413,627.015747 700.518494,625.111450 698.864746,621.541138 
	C697.095337,617.721069 694.530029,616.261414 690.513855,617.448242 
	C687.976440,618.198059 685.502014,618.962158 683.184082,620.437439 
	C675.475769,625.343689 668.217468,630.958252 660.048340,635.143311 
	C652.311279,639.107056 651.986511,639.922974 654.252930,647.975464 
	C655.239014,651.479065 657.020569,652.789307 660.890747,651.623962 
	C665.823181,650.138855 669.287903,646.270569 674.580017,644.098083 
M716.365051,670.806580 
	C718.356995,669.243652 722.850769,669.022766 721.036377,665.280457 
	C719.850220,662.833801 718.620178,660.296814 717.275940,657.878479 
	C715.065491,653.901733 712.756226,653.705627 708.698242,655.946289 
	C698.711121,661.460754 689.915405,668.974182 679.242065,673.332703 
	C673.728333,675.584290 673.191956,677.445068 675.917603,683.470642 
	C678.392212,688.941345 681.214600,690.341125 686.003662,687.208191 
	C695.474976,681.012329 705.379639,675.713623 716.365051,670.806580 
M689.954590,702.617065 
	C691.983215,704.370911 694.120117,703.826965 695.908081,702.464478 
	C704.248352,696.108704 713.754883,691.602234 722.328064,685.641052 
	C725.410889,683.497681 730.012756,681.741699 727.502319,676.462524 
	C725.982483,673.266541 722.237305,673.594910 716.420166,676.319519 
	C706.044861,681.179138 697.725220,689.478821 686.873779,693.583374 
	C684.219849,694.587219 683.666443,697.311462 686.373535,699.568604 
	C687.395813,700.420898 688.387207,701.310303 689.954590,702.617065 
M650.773193,596.235657 
	C657.619202,592.219238 663.484741,586.710632 670.982178,583.610413 
	C674.550354,582.134949 675.877625,578.754761 673.558472,574.975403 
	C670.951904,570.727783 668.098267,573.568909 666.125732,575.331970 
	C660.024719,580.785156 652.581360,584.189697 646.083313,589.055542 
	C639.839539,593.730957 639.109131,594.322327 642.672302,601.511719 
	C645.188782,599.865356 647.672791,598.240295 650.773193,596.235657 
M714.812134,705.336731 
	C715.317810,703.956055 716.642883,703.592346 717.703247,702.826904 
	C720.618347,700.722778 724.267700,699.682434 726.586975,696.730286 
	C727.566162,695.483948 728.231628,694.120483 727.105957,692.672546 
	C725.703918,690.869141 724.457153,692.295410 723.281189,693.067200 
	C717.340759,696.965820 711.315430,700.688843 704.822815,703.647522 
	C702.193176,704.845825 699.684753,706.486755 698.778625,709.804199 
	C701.700867,711.553589 704.279968,711.114502 706.911377,709.705139 
	C709.374817,708.385742 711.901917,707.185242 714.812134,705.336731 
M181.810318,676.243530 
	C180.732803,675.853638 180.978958,674.113464 179.545425,674.002075 
	C178.210114,675.562805 177.547363,677.246948 179.699997,678.430664 
	C181.060120,679.178589 182.769989,679.223938 181.810318,676.243530 
z"/>
<path fill="#000000" opacity="1.000000" stroke="none" 
	d="
M704.198242,195.482285 
	C711.288025,191.899323 718.524902,192.266373 725.447083,193.843948 
	C731.218262,195.159210 737.105774,197.296204 740.998596,202.343109 
	C742.356201,204.103195 744.156372,205.282532 745.579346,206.881622 
	C747.542786,209.088043 749.342651,208.459564 751.169189,206.839737 
	C757.122192,201.560333 763.545227,197.038910 770.843811,193.733017 
	C773.480225,192.538864 776.632080,192.078064 778.874573,192.243073 
	C789.052246,192.992020 799.173828,194.071732 806.491150,203.208755 
	C809.953430,207.532028 813.710083,212.106613 815.010254,216.908127 
	C817.899231,227.577072 819.828186,238.866730 813.651489,249.362900 
	C809.992004,255.581436 806.821411,262.427795 801.868164,267.450653 
	C796.760620,272.630035 792.584595,279.750916 784.230469,280.949768 
	C783.914307,280.995148 783.402466,281.152466 783.351074,281.352509 
	C781.647827,287.981140 774.527466,288.645416 770.321960,292.523560 
	C764.523987,297.870239 758.875244,305.049622 749.550781,305.272278 
	C745.845276,305.360748 738.710999,301.507721 736.566650,298.274567 
	C736.206421,297.731506 735.830139,297.024780 735.291870,296.800720 
	C729.087341,294.217804 723.812378,289.882721 718.973267,285.670319 
	C715.321228,282.491302 711.943054,278.546204 707.781738,276.159027 
	C704.235474,274.124634 701.513000,270.781952 699.240662,268.317749 
	C696.412659,265.251068 691.966614,262.979248 690.524414,258.290405 
	C689.705078,255.626450 688.693054,252.590149 685.715027,251.090698 
	C685.183105,250.822861 684.635681,250.146774 684.513489,249.570496 
	C682.916809,242.041245 680.176147,234.651245 681.564331,226.736923 
	C683.005554,218.520889 685.221802,210.155502 690.937439,204.274857 
	C694.300171,200.815079 697.918884,195.978683 704.198242,195.482285 
M694.499451,233.903549 
	C696.319458,238.095444 696.602661,242.766846 699.036194,246.822723 
	C704.187012,255.407257 712.541260,260.475739 719.785522,266.836670 
	C727.851196,273.918793 737.784546,278.608246 744.848877,286.929016 
	C746.654663,289.056000 749.102600,289.060944 751.676331,287.727631 
	C761.552246,282.611511 770.670288,276.500488 778.204651,268.211029 
	C778.636353,267.736053 779.260620,267.141418 779.816223,267.118774 
	C785.931152,266.869843 787.838928,260.681030 792.029236,257.750153 
	C796.757446,254.442993 799.329956,247.269913 801.512939,241.293457 
	C804.691956,232.590195 803.590332,223.473785 799.402771,215.375259 
	C797.944031,212.554077 793.817627,210.907242 792.155579,207.506729 
	C792.104370,207.401932 791.827087,207.311218 791.701721,207.353134 
	C787.831543,208.646805 784.223633,205.815231 780.431946,206.581818 
	C768.570923,208.979858 759.805603,215.153748 755.879700,227.083282 
	C754.604187,230.959137 750.712769,233.783203 747.855835,232.884888 
	C744.292114,231.764343 741.467224,227.117737 742.233582,223.232864 
	C739.911438,222.575653 738.583984,221.225784 738.505310,218.413895 
	C738.446411,216.308426 736.941895,214.249329 735.031494,213.184464 
	C727.782959,209.144211 720.802063,204.856827 711.586670,207.479660 
	C705.434509,209.230682 700.357361,213.171707 697.201355,217.349670 
	C694.455566,220.984711 692.095154,227.342926 694.499451,233.903549 
z"/>
<path fill="#000000" opacity="1.000000" stroke="none" 
	d="
M417.551300,945.148804 
	C412.990295,945.120667 408.848969,945.109253 404.710022,945.203552 
	C398.902527,945.335876 396.091919,948.085876 395.351807,953.920593 
	C394.455811,960.984009 390.987091,967.038086 387.087555,972.743042 
	C384.451172,976.600037 378.818146,977.960815 376.329285,976.097229 
	C371.399475,972.406067 370.095276,966.132202 373.350189,961.554626 
	C375.919495,957.941101 376.214996,953.459473 377.354248,949.450500 
	C379.546478,941.736389 383.480713,934.749634 385.700409,927.183350 
	C387.736267,920.243469 390.410187,913.588562 393.192841,907.004883 
	C395.312775,901.989136 396.933197,896.768005 399.468018,891.828003 
	C401.393280,888.075928 403.816589,884.310669 405.139496,880.135010 
	C406.633942,875.417908 411.343353,872.216187 416.411530,872.171021 
	C422.357849,872.118103 426.518860,875.503052 428.977905,880.347107 
	C433.671387,889.592529 438.445862,898.766479 442.296509,908.418274 
	C445.297180,915.939453 448.436157,923.391602 451.258057,930.996216 
	C455.194061,941.603210 457.626312,952.654480 461.543152,963.256653 
	C462.696838,966.379517 463.591339,970.132263 462.092529,973.356323 
	C460.771545,976.197937 458.511444,978.657166 454.662598,978.136902 
	C450.964661,977.636963 448.102814,976.851440 446.228424,972.604980 
	C443.144165,965.617493 438.992157,959.063904 436.580566,951.767822 
	C433.938904,943.775635 433.565887,943.339539 424.874451,944.300781 
	C422.568237,944.555908 420.272552,944.906189 417.551300,945.148804 
M408.039581,919.572937 
	C406.462738,922.412354 404.267609,925.571289 409.645172,926.618591 
	C415.854279,927.827820 421.977753,926.738403 427.910126,925.615723 
	C428.097961,924.834656 428.311371,924.477051 428.229919,924.209106 
	C425.872711,916.458008 421.240265,909.528687 420.074097,901.315247 
	C419.882446,899.965576 418.279449,898.912048 416.629333,898.857178 
	C415.305084,898.813049 414.384277,899.604675 414.163910,900.879150 
	C413.076202,907.169739 408.780426,912.440063 408.039581,919.572937 
z"/>
<path fill="#000000" opacity="1.000000" stroke="none" 
	d="
M561.067261,887.166931 
	C557.385376,888.709473 554.810730,891.249390 552.905945,894.095398 
	C550.108643,898.274963 546.593567,898.688477 542.544373,897.042542 
	C538.557495,895.421997 535.888733,889.704346 537.166260,885.781372 
	C539.454895,878.753601 543.966003,873.658264 550.664307,870.346741 
	C561.770630,864.855835 572.783386,864.351990 584.068298,869.869507 
	C597.259644,876.319275 603.989502,890.232178 600.203369,904.806335 
	C597.417603,915.529602 589.166504,920.168579 581.146362,925.300842 
	C577.892090,927.383240 575.465027,929.041382 574.696289,933.293030 
	C574.029358,936.981934 573.354431,941.218018 569.288330,943.520508 
	C562.760742,947.217041 555.849121,944.646790 554.769958,937.288391 
	C553.374573,927.774658 557.905396,916.550842 567.174988,911.875305 
	C571.015381,909.938171 574.724060,907.738953 578.478882,905.634216 
	C579.524841,905.047974 580.175232,904.122803 580.706665,903.030823 
	C584.387512,895.466370 580.478821,887.562256 572.265747,885.837097 
	C568.470337,885.039795 564.765808,884.293884 561.067261,887.166931 
z"/>
<path fill="#000000" opacity="1.000000" stroke="none" 
	d="
M730.615051,113.512115 
	C720.857666,102.590752 710.536743,92.531021 706.092896,78.321175 
	C703.535339,70.143181 708.589172,60.945507 716.211487,61.413322 
	C721.756958,61.753670 727.673157,62.794319 731.702942,67.315567 
	C734.960327,70.970177 737.232422,70.940865 740.259338,67.045135 
	C743.211060,63.246078 746.952209,60.184654 751.131287,57.603424 
	C756.167969,54.492470 760.746765,54.515095 765.874756,57.524487 
	C771.459045,60.801723 772.031799,66.076553 770.804504,70.995827 
	C766.618774,87.772667 758.337830,102.425888 745.531921,114.219566 
	C740.683289,118.684929 736.711914,118.302803 730.615051,113.512115 
M744.273987,76.790993 
	C743.773926,77.655746 743.317932,78.549774 742.765930,79.379997 
	C740.705627,82.478607 739.799805,87.824120 735.667725,87.528473 
	C732.110291,87.273956 730.197327,82.706337 728.418579,79.277771 
	C727.211121,76.950203 726.290405,74.379234 723.629578,73.081062 
	C721.245728,71.917961 718.916687,69.988403 716.384766,72.474442 
	C714.181885,74.637474 715.305969,77.007919 716.296753,79.396561 
	C720.378784,89.237686 728.184570,96.097839 735.277954,103.567848 
	C737.784302,106.207291 739.706238,105.190140 741.597473,103.264198 
	C750.500549,94.197708 756.388184,83.312286 760.515991,71.400215 
	C760.728394,70.787308 760.714844,70.083168 760.735779,69.419273 
	C760.799255,67.406281 760.959961,65.307625 758.814941,64.133980 
	C756.458130,62.844463 754.645447,64.133476 752.979492,65.608147 
	C749.571960,68.624481 747.342224,72.581932 744.273987,76.790993 
z"/>
<path fill="#000000" opacity="1.000000" stroke="none" 
	d="
M831.780151,146.290619 
	C822.759094,130.828369 818.579346,115.098915 825.441895,97.938515 
	C826.779968,94.592445 828.822754,91.679581 831.741699,89.798203 
	C838.524719,85.426323 847.727234,90.169945 849.046936,98.472939 
	C850.734497,109.090118 850.734558,109.090134 860.756653,105.630615 
	C865.903687,103.853897 872.860291,105.713455 875.729797,109.633064 
	C878.901245,113.965118 878.561279,119.363312 874.486572,124.349846 
	C866.016602,134.714951 855.498596,142.447067 843.294861,147.859955 
	C839.395813,149.589371 835.508606,149.369598 831.780151,146.290619 
M864.621155,115.284515 
	C862.781250,112.004059 860.577576,114.167351 858.726990,115.089775 
	C854.860352,117.017159 851.188782,119.332565 847.347961,121.316032 
	C842.523193,123.807655 840.976685,122.987190 840.724243,117.657013 
	C840.504395,113.017296 840.692322,108.359520 840.626038,103.710777 
	C840.591187,101.271301 840.134705,98.939041 837.233765,98.330109 
	C834.372375,97.729469 832.993774,99.570694 831.905945,101.813965 
	C827.573242,110.748833 830.288330,129.327896 836.951111,136.818497 
	C837.931091,137.920288 838.735535,138.658859 840.307983,138.077332 
	C848.011169,135.228455 855.064636,131.270020 860.750671,125.300797 
	C863.113647,122.820076 865.429749,119.968132 864.621155,115.284515 
z"/>
<path fill="#000000" opacity="1.000000" stroke="none" 
	d="
M490.802002,902.517639 
	C501.163940,900.168762 506.077209,903.890564 506.604187,914.055420 
	C507.513977,931.603210 507.448395,949.147034 506.339417,966.683472 
	C505.832886,974.693787 501.037659,978.121887 493.261719,976.536194 
	C489.701630,975.810181 488.096527,973.789185 487.755737,970.505920 
	C486.065491,954.221497 485.580170,937.884155 485.670288,921.520874 
	C485.685791,918.704407 485.452240,915.883118 485.252045,913.069824 
	C484.931030,908.559082 486.100281,904.832825 490.802002,902.517639 
z"/>
<path fill="#000000" opacity="1.000000" stroke="none" 
	d="
M838.582703,481.504272 
	C840.860596,484.306305 841.919861,487.103424 842.282227,490.402863 
	C842.973389,496.696655 845.853760,502.419250 847.702576,508.413696 
	C848.752808,511.818848 848.015991,514.337463 845.129333,516.124878 
	C842.089722,518.006958 839.274780,517.210999 837.247986,514.448608 
	C834.513733,510.721954 832.417053,511.795349 829.803650,514.692261 
	C822.596191,522.682129 811.309631,518.242676 808.359253,509.655243 
	C805.781433,502.152130 806.126648,494.258423 808.041931,486.552734 
	C809.559509,480.447174 813.118652,475.588104 819.591064,475.007446 
	C826.449341,474.392212 833.728821,474.275299 838.582703,481.504272 
M824.370422,490.209747 
	C820.091492,490.787384 820.045227,494.163208 819.782532,497.301666 
	C819.682617,498.495697 820.226929,499.607422 821.429443,500.131805 
	C822.741760,500.704132 823.630310,499.870819 824.459045,499.029938 
	C827.131226,496.318481 826.749451,493.437500 824.370422,490.209747 
z"/>
<path fill="#000000" opacity="1.000000" stroke="none" 
	d="
M872.536621,454.990417 
	C873.812866,448.715515 877.803223,444.961365 883.024170,442.814545 
	C889.607239,440.107635 896.515320,438.036011 903.564880,441.404236 
	C913.617065,446.207001 917.196655,459.323578 912.977966,469.807953 
	C910.960571,474.821747 908.485657,479.729156 904.341370,483.501923 
	C902.886475,484.826385 902.948120,486.804657 902.385254,488.517517 
	C901.069885,492.520416 897.882874,493.940125 894.041016,494.244812 
	C890.336182,494.538666 886.679626,493.072632 886.234924,489.554169 
	C885.667542,485.065582 885.080994,479.958069 889.326294,476.260437 
	C892.881531,473.163849 895.099731,468.991608 897.867920,465.262695 
	C900.707397,461.437775 898.836243,458.316437 896.181763,455.568512 
	C893.329468,452.615875 890.724426,454.791077 888.258850,456.475647 
	C887.447632,457.029907 886.791748,457.818604 886.090454,458.525513 
	C879.776123,464.890686 875.804016,463.963684 872.536621,454.990417 
z"/>
<path fill="#000000" opacity="1.000000" stroke="none" 
	d="
M858.385620,247.480499 
	C857.547729,246.007477 856.723267,244.912354 856.287476,243.679825 
	C855.056946,240.198853 852.134338,236.393890 855.282349,233.019287 
	C859.028015,229.004059 863.595886,225.427368 869.789612,227.821228 
	C875.154114,229.894638 880.301758,231.033249 886.184326,229.325073 
	C890.902832,227.954941 894.659668,231.207642 896.794312,235.073654 
	C898.962708,239.000580 897.560852,242.882217 894.921814,246.596985 
	C890.988464,252.133621 885.454956,255.811920 880.480408,260.140289 
	C876.785706,263.355103 871.748840,262.851074 867.830322,259.407837 
	C864.035645,256.073364 861.339050,251.921677 858.385620,247.480499 
M871.159424,251.037781 
	C872.723694,253.068527 874.507080,251.827484 876.132629,251.256378 
	C879.493652,250.075500 882.105774,247.642426 884.820984,245.484558 
	C886.851257,243.871048 889.341736,241.775681 886.970276,238.822433 
	C884.460083,235.696503 881.997803,238.038055 880.215332,239.822662 
	C877.428406,242.612915 874.957947,242.026077 872.289001,239.972992 
	C870.969849,238.958191 869.718262,237.853928 868.381409,236.864075 
	C865.955688,235.068100 864.653198,236.176117 864.271301,238.717072 
	C863.970825,240.716141 864.250366,242.578857 865.840149,244.234436 
	C867.671875,246.141891 869.162231,248.377151 871.159424,251.037781 
z"/>
<path fill="#000000" opacity="1.000000" stroke="none" 
	d="
M649.625000,936.582031 
	C645.097778,936.287048 640.979370,936.476135 636.890747,935.464417 
	C630.560486,933.897949 627.707275,926.861511 631.531555,921.693787 
	C632.158875,920.846130 632.856201,919.891174 633.868469,920.121582 
	C639.693176,921.447632 645.685608,918.172668 651.503174,920.984558 
	C654.049805,922.215454 657.571106,920.885132 659.402527,920.228821 
	C664.064331,918.558350 668.398254,919.654480 672.830078,919.518433 
	C676.529297,919.404907 680.375732,920.117981 682.060974,923.861145 
	C683.762939,927.641602 680.884521,932.259644 676.820801,934.286377 
	C669.613281,937.880859 662.136597,937.705994 654.491028,936.620300 
	C653.034729,936.413452 651.529541,936.551147 649.625000,936.582031 
z"/>
<path fill="#000000" opacity="1.000000" stroke="none" 
	d="
M290.518921,924.272461 
	C294.280548,921.936279 298.355042,922.036560 301.940338,922.322998 
	C311.952759,923.123108 321.903717,922.829956 331.871735,922.173767 
	C335.803253,921.914978 339.383759,922.302795 340.765869,926.609436 
	C342.132812,930.868774 339.087280,936.492615 334.715424,938.191772 
	C331.886536,939.291260 328.811981,939.786133 325.886963,939.139404 
	C319.333160,937.690308 312.721375,938.341064 306.135742,938.059570 
	C301.447754,937.859192 296.787537,936.698059 292.790558,934.528992 
	C289.126678,932.540649 288.260681,928.618469 290.518921,924.272461 
z"/>
<path fill="#000000" opacity="1.000000" stroke="none" 
	d="
M382.717865,797.325317 
	C378.146973,761.967407 377.271820,707.487427 382.511444,702.713989 
	C387.013489,745.624817 388.437225,787.575562 388.006287,829.671326 
	C383.102936,819.524902 383.206451,808.612183 382.717865,797.325317 
z"/>
<path fill="#000000" opacity="1.000000" stroke="none" 
	d="
M589.475769,665.568909 
	C592.341797,663.213806 593.604492,664.508484 594.125305,667.191956 
	C594.676636,670.033081 593.687134,672.765381 593.330261,675.541809 
	C592.347595,683.186523 593.277222,690.885376 592.005310,698.609497 
	C590.892151,705.370361 588.422852,711.716858 587.361145,718.435364 
	C586.953369,721.015869 583.287048,722.057434 583.869324,725.412598 
	C583.999756,726.163879 582.391418,726.498718 581.394043,725.821045 
	C580.196289,725.007141 578.242371,724.247925 579.430847,722.481567 
	C581.148193,719.929382 580.676636,717.261108 580.087769,714.814758 
	C578.960693,710.132812 580.567444,705.803955 581.864685,701.723145 
	C584.870300,692.268677 585.658386,682.544861 586.695496,672.830017 
	C586.974854,670.213867 588.332703,668.169250 589.475769,665.568909 
z"/>
<path fill="#000000" opacity="1.000000" stroke="none" 
	d="
M855.667603,506.688110 
	C854.978394,500.917206 854.371887,495.489716 853.684326,490.072479 
	C853.111084,485.556213 855.866760,480.266266 859.154968,479.737518 
	C862.809692,479.149841 867.628174,483.468933 868.088196,488.115662 
	C868.643921,493.730286 869.736877,499.296906 869.428589,505.002075 
	C869.218323,508.895508 868.638855,512.271667 864.259399,513.654236 
	C859.636841,515.113647 858.755066,511.094269 856.735962,508.728607 
	C856.313904,508.234192 856.051270,507.603760 855.667603,506.688110 
z"/>
<path fill="#000000" opacity="1.000000" stroke="none" 
	d="
M566.801453,957.244385 
	C573.941711,960.631836 575.771240,964.270691 574.159668,972.687866 
	C573.235779,977.513000 569.506409,979.684509 564.911743,980.372986 
	C558.675415,981.307495 552.906128,975.964661 551.869934,968.406982 
	C551.247253,963.866028 555.506897,959.355469 561.199280,958.418701 
	C562.967346,958.127808 564.696838,957.602356 566.801453,957.244385 
z"/>
<path fill="#000000" opacity="1.000000" stroke="none" 
	d="
M484.549255,880.724548 
	C484.027222,873.696533 486.271973,870.119812 492.066895,868.262329 
	C498.740143,866.123413 503.443726,867.581909 506.518616,872.213867 
	C508.923370,875.836304 508.499207,879.137024 506.171082,882.350159 
	C503.285583,886.332642 499.593506,888.971802 494.341858,887.545044 
	C490.429657,886.482178 486.886688,884.697510 484.549255,880.724548 
z"/>
<path fill="#000000" opacity="1.000000" stroke="none" 
	d="
M898.838013,520.800964 
	C894.595215,519.652588 890.149536,519.537659 888.622803,514.549133 
	C887.092957,509.550568 888.417175,505.686554 892.460449,504.200867 
	C899.255676,501.703979 903.359070,503.197083 905.925293,509.100311 
	C907.624878,513.009766 905.667664,517.958984 901.577209,519.983032 
	C900.840271,520.347717 900.008362,520.520508 898.838013,520.800964 
z"/>
<path fill="#000000" opacity="1.000000" stroke="none" 
	d="
M483.651733,811.516113 
	C479.995361,815.171936 475.754822,813.097900 472.998718,811.732300 
	C469.622223,810.059265 470.591400,805.024719 470.933716,801.765076 
	C471.308594,798.195679 481.472565,798.268433 484.440521,801.569763 
	C487.593262,805.076660 486.331146,808.145935 483.651733,811.516113 
z"/>
<path fill="#000000" opacity="1.000000" stroke="none" 
	d="
M849.252075,464.516846 
	C849.833679,459.641815 852.760437,456.951538 857.549011,457.124817 
	C861.831238,457.279724 863.897583,460.497498 864.825439,464.172729 
	C865.762451,467.884491 863.416504,470.118439 860.249878,471.424561 
	C855.879761,473.227112 852.958496,470.979340 850.616028,467.582977 
	C850.061096,466.778412 849.782593,465.783203 849.252075,464.516846 
z"/>
<path fill="#000000" opacity="1.000000" stroke="none" 
	d="
M375.874878,433.905182 
	C377.689606,434.761169 379.156189,435.526947 380.524811,436.439606 
	C387.815979,441.301788 396.695496,440.205383 402.607117,433.707550 
	C405.118225,430.947418 408.039001,428.933258 411.755127,431.226257 
	C414.688416,433.036194 415.001953,437.808502 412.569000,441.140594 
	C403.358154,453.755310 385.439423,455.147491 374.213806,446.253540 
	C368.863892,442.014954 369.558624,436.567047 375.874878,433.905182 
z"/>
<path fill="#000000" opacity="1.000000" stroke="none" 
	d="
M313.741821,417.523376 
	C309.075897,424.132599 302.045258,425.422333 295.704041,424.173920 
	C289.620758,422.976318 284.350159,419.094910 281.378998,412.355865 
	C276.992279,402.406067 276.899475,392.171875 276.775452,381.732666 
	C276.708710,376.115723 279.204529,371.394745 281.542328,366.752960 
	C283.087067,363.685822 287.308044,362.912292 290.336395,361.785706 
	C296.368683,359.541565 304.136841,363.586029 308.473602,368.576935 
	C315.903381,377.127441 316.256409,387.508545 317.152405,397.803253 
	C317.612457,403.089203 317.444763,408.401154 316.324066,413.660156 
	C315.981537,415.267548 315.380432,416.445221 313.741821,417.523376 
z"/>
<path fill="#000000" opacity="1.000000" stroke="none" 
	d="
M288.003967,431.547272 
	C287.500793,437.842255 288.485474,444.039795 285.062866,449.182495 
	C283.014709,449.162415 282.201843,448.144104 281.961609,447.075195 
	C280.536438,440.733795 281.329590,434.346649 282.022064,428.009155 
	C282.226624,426.136780 283.888885,425.891144 285.447357,427.000763 
	C286.863892,428.009247 287.635040,429.437653 288.003967,431.547272 
z"/>
<path fill="#000000" opacity="1.000000" stroke="none" 
	d="
M452.512299,350.891327 
	C455.988037,335.643219 471.282471,332.643402 482.212585,341.813019 
	C487.183533,345.983246 488.750885,352.134857 489.467590,358.391968 
	C490.354340,366.133392 490.536896,373.830658 488.948822,381.569794 
	C487.802704,387.155426 479.082489,396.868195 473.433319,398.040253 
	C467.186127,399.336395 457.415710,393.858856 454.918213,387.851227 
	C449.960541,375.925812 450.010345,363.682709 452.512299,350.891327 
z"/>
<path fill="#000000" opacity="1.000000" stroke="none" 
	d="
M496.835114,399.967468 
	C497.011841,396.299377 496.407043,392.888733 499.065918,390.078461 
	C502.394745,391.315338 503.258911,393.986572 503.332703,396.817505 
	C503.453552,401.453735 503.247467,406.101074 503.087372,410.740540 
	C503.036896,412.204224 502.976135,414.018066 500.957855,414.104889 
	C498.885132,414.194031 498.138794,412.513123 497.915070,410.804840 
	C497.463806,407.359009 497.194824,403.889313 496.835114,399.967468 
z"/>
<path fill="#000000" opacity="1.000000" stroke="none" 
	d="
M485.449158,399.342773 
	C488.873291,401.476227 490.828217,411.795258 488.416260,414.364594 
	C486.212769,416.711914 484.727386,414.847565 484.020142,412.881683 
	C482.377258,408.315002 482.433868,403.764648 485.449158,399.342773 
z"/>
<path fill="#000000" opacity="1.000000" stroke="none" 
	d="
M646.010559,622.016724 
	C646.575500,618.382812 649.994568,617.278687 652.267822,615.266235 
	C658.571655,609.685913 664.897095,604.064819 672.624146,600.424683 
	C673.996948,599.777954 675.353394,598.224670 677.648743,600.273987 
	C667.376953,607.710754 661.311707,620.652527 646.331787,621.847534 
	C645.980835,621.991028 646.002197,622.006348 646.010559,622.016724 
z"/>
</svg>